<svg width="28" height="28" viewBox="0 0 28 28" fill="none" xmlns="http://www.w3.org/2000/svg">
<path d="M0 14C0 7.40033 0 4.1005 2.05025 2.05025C4.1005 0 7.40033 0 14 0C20.5997 0 23.8995 0 25.9498 2.05025C28 4.1005 28 7.40033 28 14C28 20.5997 28 23.8995 25.9498 25.9498C23.8995 28 20.5997 28 14 28C7.40033 28 4.1005 28 2.05025 25.9498C0 23.8995 0 20.5997 0 14Z" fill="#243A5A"/>
<path d="M16.7998 18.2C17.1864 18.2 17.5069 18.5165 17.4301 18.8954C17.2943 19.5646 16.9646 20.1849 16.4746 20.6749C15.8183 21.3313 14.9281 21.7 13.9998 21.7C13.0715 21.7 12.1813 21.3313 11.5249 20.6749C11.0349 20.1849 10.7052 19.5646 10.5696 18.8954C10.4927 18.5165 10.8132 18.2 11.1998 18.2H16.7998Z" fill="#2DF8BB"/>
<path d="M18.2717 12.4435C17.8983 12.5436 17.6696 12.9342 17.8589 13.2713C18.0582 13.626 18.3339 13.9356 18.6693 14.176C19.1958 14.5533 19.8368 14.7364 20.4833 14.694C21.1297 14.6516 21.7414 14.3864 22.2142 13.9436C22.687 13.5008 22.9916 12.9077 23.0762 12.2654C23.1607 11.6232 23.02 10.9715 22.6779 10.4214C22.3359 9.8713 21.8136 9.45683 21.2002 9.24858C20.5868 9.04033 19.9202 9.05125 19.3139 9.27945C18.9278 9.42477 18.5814 9.65248 18.2971 9.94354C18.0269 10.2201 18.1467 10.6567 18.4815 10.85L18.8366 11.055C19.3767 11.3669 19.2702 12.176 18.6678 12.3374L18.2717 12.4435Z" fill="#2DF8BB"/>
<path d="M9.72832 12.4435C10.1018 12.5436 10.3305 12.9342 10.1411 13.2713C9.94182 13.626 9.66616 13.9356 9.33086 14.176C8.80432 14.5533 8.16319 14.7364 7.51681 14.694C6.87037 14.6516 6.25865 14.3864 5.78585 13.9436C5.31305 13.5008 5.00841 12.9077 4.92386 12.2654C4.83931 11.6232 4.98006 10.9715 5.32214 10.4214C5.66422 9.8713 6.18646 9.45683 6.79988 9.24858C7.41328 9.04033 8.07996 9.05125 8.68623 9.27945C9.07228 9.42477 9.41871 9.65248 9.70305 9.94354C9.97318 10.2201 9.85334 10.6567 9.51853 10.85L9.16342 11.055C8.62337 11.3669 8.72991 12.176 9.33226 12.3374L9.72832 12.4435Z" fill="#2DF8BB"/>
</svg>
