<svg width="108" height="45" viewBox="0 0 108 45" fill="none" xmlns="http://www.w3.org/2000/svg">
<g clip-path="url(#clip0_13_683)">
<path d="M19.9416 6.15181C18.6877 7.63238 16.681 8.80057 14.6745 8.63354C14.4238 6.63164 15.406 4.50421 16.5556 3.19026C17.8095 1.66798 20.0043 0.583412 21.7808 0.5C21.9898 2.58552 21.1748 4.62933 19.9418 6.15181H19.9416ZM21.7599 9.02995C18.8546 8.86313 16.3675 10.6773 14.988 10.6773C13.5878 10.6773 11.4767 9.11337 9.17762 9.15507C6.18894 9.19678 3.40903 10.8859 1.88323 13.5763C-1.25195 18.9571 1.06819 26.924 4.09868 31.3035C5.58267 33.4725 7.35925 35.8499 9.70008 35.7665C11.9157 35.6831 12.7935 34.3277 15.4689 34.3277C18.165 34.3277 18.9384 35.7665 21.2793 35.7248C23.7037 35.6831 25.2295 33.5561 26.7135 31.387C28.4063 28.9261 29.0961 26.5276 29.1379 26.4024C29.0961 26.3607 24.4563 24.5882 24.4145 19.249C24.3727 14.786 28.0721 12.6588 28.2393 12.5337C26.149 9.44701 22.8887 9.11337 21.7599 9.02995ZM38.5435 2.98173V35.4956H43.6013V24.3797H50.6031C56.9987 24.3797 61.4925 20.0001 61.4925 13.66C61.4925 7.32 57.0823 2.98193 50.7703 2.98193H38.5433L38.5435 2.98173ZM43.6013 7.23638H49.4326C53.8219 7.23638 56.3299 9.57213 56.3299 13.6806C56.3299 17.7891 53.8219 20.1459 49.4117 20.1459H43.6013V7.23638Z" fill="white"/>
<path d="M70.7306 35.7458C73.9076 35.7458 76.8545 34.1401 78.1922 31.5956H78.2967V35.4956H82.9786V19.3117C82.9786 14.6193 79.2164 11.5952 73.4267 11.5952C68.0552 11.5952 64.0841 14.661 63.9378 18.8738H68.4943C68.8704 16.8717 70.7304 15.5577 73.2804 15.5577C76.3738 15.5577 78.1086 16.9968 78.1086 19.6455V21.4389L71.7964 21.8143C65.9234 22.1688 62.7466 24.5673 62.7466 28.7385C62.7466 32.9513 66.0278 35.7458 70.7306 35.7458ZM72.089 31.8876C69.3931 31.8876 67.679 30.5947 67.679 28.6132C67.679 26.5696 69.3302 25.3808 72.4863 25.1931L78.1086 24.8386V26.6737C78.1086 29.7186 75.517 31.8876 72.0892 31.8876H72.089ZM89.2278 44.3383C94.1605 44.3383 96.4804 42.4615 98.5078 36.7678L107.391 11.908H102.249L96.2923 31.1158H96.1878L90.2312 11.908H84.9432L93.5124 35.579L93.0527 37.018C92.2794 39.4581 91.0253 40.3967 88.789 40.3967C88.3919 40.3967 87.6186 40.355 87.305 40.3132V44.2132C87.5975 44.2966 88.8514 44.3383 89.2278 44.3383Z" fill="white"/>
</g>
<defs>
<clipPath id="clip0_13_683">
<rect width="107" height="44" fill="white" transform="translate(0.390625 0.5)"/>
</clipPath>
</defs>
</svg>
