<svg width="54" height="35" viewBox="0 0 54 35" fill="none" xmlns="http://www.w3.org/2000/svg">
<path d="M48.7828 15.0218C48.7649 13.4134 48.7589 11.7931 48.753 10.1787H43.9397C43.9218 11.7871 43.9099 13.4015 43.898 15.0218C42.2777 15.0277 40.6693 15.0396 39.0609 15.0575V19.8768C40.6693 19.8946 42.2896 19.9065 43.898 19.9244C43.9159 21.5328 43.9159 23.1472 43.9278 24.7556H48.747C48.753 23.1472 48.7649 21.5328 48.7768 19.9125C50.3971 19.8946 52.0055 19.8887 53.6139 19.8708V15.0516C52.0115 15.0396 50.3912 15.0396 48.7828 15.0218ZM17.2105 15.0456C17.2046 16.9697 17.2105 18.8998 17.2165 20.8239C20.4452 20.9312 23.6798 20.8835 26.9086 20.9312C25.4848 28.0975 15.7451 30.4207 10.5922 25.7385C5.29049 21.6341 5.54068 12.633 11.0509 8.82051C14.9051 5.74668 20.3796 6.50322 24.2338 9.16602C25.7469 7.76612 27.1647 6.26494 28.5289 4.71611C25.324 2.16055 21.3923 0.337698 17.2105 0.528323C8.4775 0.236428 0.45338 7.88526 0.310412 16.6242C-0.249549 23.7667 4.44459 30.7662 11.0688 33.292C17.6692 35.8356 26.1341 34.1021 30.3517 28.1689C33.1337 24.422 33.7353 19.5968 33.4077 15.0635C28.0047 15.0218 22.6076 15.0277 17.2105 15.0456Z" fill="white"/>
</svg>
