<svg width="80" height="29" viewBox="0 0 80 29" fill="none" xmlns="http://www.w3.org/2000/svg">
<path d="M79.9999 0.5L21.4732 25.42C16.6199 27.4733 12.5432 28.5033 9.24653 28.5033C5.5132 28.5033 2.8032 27.1967 1.1232 24.58C0.0665344 22.9 -0.243466 20.77 0.189868 18.1867C0.623201 15.6033 1.77653 12.8533 3.6432 9.92667C5.19987 7.56 7.74987 4.45 11.2999 0.593333C10.0957 2.48889 9.21277 4.57019 8.68653 6.75333C7.7532 10.7367 8.5932 13.66 11.2065 15.5267C12.4499 16.3967 14.1599 16.8333 16.3399 16.8333C18.0799 16.8333 20.0399 16.5533 22.2199 15.9933L79.9999 0.5Z" fill="white"/>
</svg>
