<svg width="66" height="53" viewBox="0 0 66 53" fill="none" xmlns="http://www.w3.org/2000/svg">
<path d="M1.8125 33.5382C2.04609 33.1116 2.34063 33.0405 2.79766 33.2843C3.85391 33.853 4.88984 34.4421 5.96641 34.9804C10.0865 37.0349 14.4276 38.6125 18.9055 39.6827C21.0228 40.1935 23.1653 40.5936 25.3242 40.8812C28.5214 41.3109 31.7476 41.4875 34.9727 41.4093C36.7398 41.3687 38.507 41.2265 40.2641 41.0233C45.9688 40.3584 51.5517 38.8951 56.8492 36.6765C57.1438 36.5546 57.4484 36.4733 57.7734 36.5546C58.4539 36.7374 58.6875 37.4687 58.1898 37.9663C57.8872 38.2446 57.561 38.496 57.2148 38.7179C54.0969 40.8608 50.6945 42.4148 47.0992 43.5827C44.6096 44.3851 42.0587 44.9829 39.4719 45.3702C37.6826 45.6443 35.8781 45.8071 34.0688 45.8577C33.9836 45.8629 33.8988 45.873 33.8148 45.8882H31.6719C31.5879 45.873 31.5031 45.8629 31.418 45.8577C31.0523 45.8374 30.6867 45.8273 30.3312 45.8171C28.6158 45.7393 26.9066 45.5596 25.2125 45.2788C22.4308 44.8255 19.6972 44.1149 17.0469 43.1562C11.595 41.19 6.57393 38.1898 2.25937 34.3202C2.07656 34.1577 1.95469 33.9343 1.8125 33.7413V33.5382Z" fill="white"/>
<path d="M17.8595 7.11182L17.4228 7.17275C16.0262 7.34513 14.6973 7.87319 13.5634 8.70635C13.3196 8.879 13.0962 9.06182 12.8423 9.25479C12.8207 9.21005 12.807 9.16196 12.8017 9.1126C12.761 8.83838 12.7204 8.554 12.6696 8.27979C12.5985 7.8126 12.3649 7.60947 11.8978 7.60947H10.7298C10.029 7.60947 9.89697 7.7415 9.89697 8.44229V29.6993C9.89697 29.8009 9.89697 29.9024 9.90713 30.004C9.92744 30.3087 10.1103 30.5017 10.4048 30.5118C11.1157 30.522 11.8368 30.522 12.5478 30.5118C12.8423 30.5118 13.0251 30.3087 13.0556 30.004C13.0657 29.9024 13.0657 29.8009 13.0657 29.6993V22.3462C13.1774 22.4376 13.2384 22.4884 13.2892 22.5392C15.1071 24.0524 17.1993 24.5501 19.4845 24.1032C21.5563 23.697 22.9985 22.4274 23.9329 20.5587C24.6438 19.147 24.9384 17.6438 24.979 16.0798C25.0298 14.3431 24.8571 12.6368 24.1563 11.022C23.2931 9.03135 21.861 7.72119 19.6978 7.27432C19.3728 7.20322 19.0376 7.17275 18.7024 7.12197C18.4181 7.11182 18.1438 7.11182 17.8595 7.11182V7.11182Z" fill="white"/>
<path d="M13.0453 11.3672C13.0395 11.3007 13.0526 11.234 13.0832 11.1747C13.1137 11.1154 13.1605 11.0659 13.2179 11.032C14.6093 10.0672 16.1429 9.55938 17.8492 9.69141C19.3625 9.80313 20.6015 10.5445 21.2515 12.3219C21.6476 13.4086 21.7492 14.5359 21.7492 15.6734C21.7492 16.7297 21.6679 17.7656 21.3429 18.7813C20.6523 20.9445 19.0679 21.7672 17.0164 21.6758C15.5945 21.6148 14.3554 21.0664 13.2179 20.2641C13.1612 20.2294 13.1151 20.1798 13.0846 20.1207C13.0542 20.0616 13.0406 19.9952 13.0453 19.9289C13.0554 18.4969 13.0453 17.075 13.0453 15.643C13.0453 14.2109 13.0554 12.7992 13.0453 11.3672V11.3672ZM33.9367 7.11172C33.8351 7.12187 33.7336 7.14219 33.6422 7.15234C32.6524 7.19409 31.6693 7.33357 30.707 7.56875C30.0875 7.73125 29.4882 7.95469 28.889 8.15781C28.5234 8.27969 28.3406 8.54375 28.3507 8.93984C28.3609 9.275 28.3406 9.61016 28.3507 9.94531C28.3609 10.4328 28.564 10.5648 29.0414 10.443C29.8336 10.2398 30.6257 10.0164 31.4281 9.86406C32.6773 9.63047 33.9367 9.52891 35.2062 9.72188C35.8664 9.82344 36.4859 10.0164 36.9125 10.575C37.2883 11.0625 37.4304 11.6414 37.4507 12.2406C37.4812 13.0836 37.4711 13.9266 37.4812 14.7695C37.4787 14.8174 37.4719 14.865 37.4609 14.9117C37.4101 14.9016 37.3695 14.9117 37.3289 14.9016C36.2626 14.6387 35.1749 14.4721 34.0789 14.4039C32.9312 14.343 31.7937 14.4141 30.6968 14.8C29.3867 15.257 28.3304 16.0492 27.7109 17.3289C27.2336 18.3242 27.1625 19.3805 27.3148 20.4469C27.5179 21.8688 28.2289 22.9656 29.4882 23.6664C30.6968 24.3367 32.007 24.418 33.3375 24.2148C34.8711 23.9813 36.232 23.3313 37.4304 22.3461C37.4794 22.3018 37.5341 22.2643 37.5929 22.2344C37.6539 22.6203 37.7047 22.9859 37.7758 23.3516C37.8367 23.6664 38.0297 23.8695 38.3242 23.8797C38.8726 23.8898 39.4312 23.8898 39.9797 23.8797C40.1069 23.8787 40.2288 23.8284 40.3197 23.7394C40.4106 23.6503 40.4635 23.5295 40.4672 23.4023C40.4756 23.3078 40.479 23.2129 40.4773 23.118V12.3523C40.4822 11.9139 40.4517 11.4757 40.3859 11.0422C40.1929 9.73203 39.6343 8.65547 38.4562 7.95469C37.7757 7.54844 37.0242 7.34531 36.2422 7.23359C35.8765 7.18281 35.5109 7.15234 35.1453 7.10156C34.7492 7.11172 34.3429 7.11172 33.9367 7.11172V7.11172ZM37.4914 20.0813C37.4952 20.141 37.4831 20.2006 37.4564 20.2542C37.4296 20.3077 37.3891 20.3532 37.339 20.3859C36.2015 21.2086 34.9523 21.757 33.5406 21.8992C32.9617 21.9602 32.3828 21.9398 31.8343 21.7164C31.533 21.6062 31.2618 21.4265 31.043 21.1917C30.8242 20.957 30.6638 20.674 30.575 20.3656C30.3736 19.7248 30.3701 19.0382 30.5648 18.3953C30.8187 17.5523 31.4179 17.075 32.2304 16.8109C33.0459 16.565 33.9032 16.489 34.7492 16.5875C35.6023 16.6586 36.4351 16.8211 37.2882 16.9328C37.4507 16.9531 37.5015 17.0344 37.5015 17.1969C37.4914 17.6844 37.5015 18.1617 37.5015 18.6492C37.5015 19.1367 37.4812 19.6039 37.4914 20.0813ZM63.8875 33.2234C63.7859 32.7156 63.4 32.5227 62.9632 32.3805C62.2709 32.1627 61.5548 32.0297 60.8304 31.9844C59.5007 31.8709 58.1617 31.9358 56.8492 32.1773C55.3968 32.4516 54.0156 32.9188 52.7867 33.7617C52.6404 33.8558 52.5129 33.9763 52.4109 34.1172C52.3753 34.1779 52.3525 34.2453 52.3438 34.3151C52.335 34.3849 52.3406 34.4558 52.3601 34.5234C52.4008 34.6758 52.5734 34.7164 52.7257 34.7063C52.8004 34.7079 52.875 34.7045 52.9492 34.6961C53.7414 34.6148 54.5234 34.5234 55.3156 34.4422C56.4734 34.3305 57.6414 34.2594 58.7992 34.3508C59.2948 34.392 59.7848 34.4839 60.2617 34.625C60.7797 34.7672 61.0132 35.1531 61.0336 35.6813C61.0742 36.4938 60.8914 37.2758 60.6781 38.0477C60.2617 39.6117 59.6625 41.125 59.0734 42.6281C59.0305 42.7264 58.9965 42.8284 58.9718 42.9328C58.9211 43.2273 59.0937 43.4203 59.3883 43.3492C59.57 43.3084 59.7381 43.2209 59.8758 43.0953C60.334 42.6694 60.7648 42.2148 61.1656 41.7344C62.4656 40.0688 63.2273 38.1492 63.6742 36.0875C63.7554 35.7219 63.8164 35.3461 63.8875 34.9805V33.2234V33.2234Z" fill="white"/>
<path d="M50.4713 20.711C49.1611 17.0852 47.851 13.456 46.5408 9.82346C46.3377 9.24455 46.1143 8.6758 45.901 8.10705C45.7893 7.81252 45.576 7.61955 45.251 7.61955C44.4791 7.6094 43.7072 7.59924 42.9252 7.6094C42.6713 7.6094 42.5494 7.81252 42.6002 8.06643C42.6491 8.27743 42.7136 8.48451 42.7932 8.68596C44.7838 13.6117 46.7846 18.5375 48.7955 23.4633C48.9682 23.8797 49.0088 24.2352 48.8158 24.6617C48.4807 25.4031 48.2166 26.1852 47.8713 26.9266C47.5666 27.5867 47.0588 28.0844 46.3275 28.2774C45.8175 28.4106 45.2873 28.4485 44.7635 28.3891C44.5096 28.3688 44.2557 28.3078 44.0018 28.2875C43.6565 28.2672 43.4838 28.4196 43.4736 28.775C43.4635 29.1136 43.4635 29.4487 43.4736 29.7805C43.4838 30.3391 43.6768 30.593 44.2252 30.6844C44.7911 30.7971 45.365 30.865 45.9416 30.8875C47.6783 30.9281 49.0596 30.2274 49.9533 28.7141C50.3131 28.1165 50.6255 27.4917 50.8877 26.8453C53.2947 20.7719 55.6848 14.6917 58.058 8.60471C58.1321 8.4249 58.1866 8.23762 58.2205 8.04612C58.2611 7.76174 58.1291 7.59924 57.8447 7.59924C57.1744 7.58908 56.494 7.59924 55.8236 7.59924C55.653 7.5873 55.4833 7.63282 55.3416 7.72853C55.1999 7.82425 55.0943 7.96465 55.0416 8.12737C54.9908 8.26955 54.9299 8.40158 54.8791 8.54377L51.3447 18.7C51.0908 19.4313 50.8268 20.1727 50.5627 20.9547C50.5221 20.843 50.5018 20.7821 50.4713 20.711V20.711Z" fill="white"/>
</svg>
