<svg width="116" height="19" viewBox="0 0 116 19" fill="none" xmlns="http://www.w3.org/2000/svg">
<path d="M95.3471 1.25816L95.5675 14.1669H95.4573L91.7198 1.26295H85.5721V17.5163H89.6354L89.415 4.17149H89.5252L93.531 17.5163H99.4104V1.26295L95.3471 1.25816ZM17.9617 1.25816L14.8902 17.684H19.3369L21.589 2.74358H21.6992L23.8985 17.684H28.2877L25.269 1.26295L17.9617 1.25816ZM42.7873 1.25816L40.7556 13.7836H40.6454L38.6138 1.26295H31.9198L31.5892 17.684H35.71L35.8202 2.91129H35.8729L38.6185 17.684H42.7921L45.5377 2.91129H45.6479L45.7581 17.684H49.879L49.4956 1.26295L42.7873 1.25816ZM7.97104 13.0169C8.09594 13.4075 8.11414 13.8244 8.02375 14.2244C7.91354 14.7707 7.53021 15.3217 6.43292 15.3217C5.38833 15.3217 4.78458 14.718 4.78458 13.8363V12.2455H0.390625V13.5105C0.390625 17.1905 3.29917 18.2877 6.38021 18.2877C9.34146 18.2877 11.814 17.2432 12.1973 14.5502C12.4177 13.1223 12.2548 12.1927 12.1973 11.8621C11.4306 8.40254 5.16792 7.41066 4.72708 5.4892C4.67225 5.19948 4.67225 4.90205 4.72708 4.61233C4.83729 4.06129 5.22542 3.51025 6.2125 3.51025C7.19958 3.51025 7.74583 4.11879 7.74583 4.99566V5.98274H11.8667V4.83275C11.8667 1.26295 8.6275 0.711914 6.32271 0.711914C3.40938 0.711914 0.994375 1.699 0.553542 4.33921C0.409335 5.06591 0.428978 5.81563 0.611042 6.53378C1.2675 9.93587 7.14687 10.9277 7.97104 13.0121V13.0169ZM61.4077 13.0121C61.5706 13.3955 61.5131 13.8938 61.4604 14.2244C61.3502 14.7707 60.9669 15.3217 59.8696 15.3217C58.825 15.3217 58.2212 14.718 58.2212 13.8363V12.2455H53.8273V13.5105C53.8273 17.133 56.6831 18.2302 59.7594 18.2302C62.7254 18.2302 65.1404 17.2432 65.5238 14.4975C65.7442 13.0696 65.5813 12.1927 65.5238 11.8046C64.8673 8.40254 58.6573 7.35795 58.2212 5.4892C58.166 5.19953 58.166 4.902 58.2212 4.61233C58.3315 4.06129 58.7148 3.51025 59.7067 3.51025C60.6362 3.51025 61.24 4.11879 61.24 4.99566V5.98274H65.3033V4.83275C65.3033 1.26295 62.1169 0.711914 59.8121 0.711914C56.9035 0.711914 54.5412 1.64629 54.1004 4.33921C53.9902 5.05316 53.9902 5.70962 54.1579 6.53378C54.8144 9.93587 60.5788 10.8702 61.4077 13.0121ZM75.246 15.2115C76.396 15.2115 76.7315 14.4448 76.8369 14.004C76.8944 13.8363 76.8944 13.5632 76.8944 13.4002V1.25816H81.0631V13.0648C81.0631 13.3955 81.0631 13.9992 81.0152 14.1669C80.7373 17.2384 78.3223 18.2255 75.2988 18.2255C72.28 18.2255 69.865 17.2384 69.5871 14.1621C69.5871 13.9992 69.5344 13.3955 69.5344 13.0648V1.25816H73.7031V13.3955C73.7031 13.6159 73.7031 13.8315 73.7606 13.9992C73.7606 14.4352 74.096 15.2067 75.246 15.2067V15.2115ZM109.516 15.0438C110.724 15.0438 111.107 14.2771 111.217 13.8315C111.27 13.6686 111.27 13.3955 111.27 13.2277V10.8655H109.569V8.45045H115.391V12.8444C115.391 13.175 115.391 13.3955 115.338 13.9465C115.06 16.9652 112.477 18.005 109.569 18.005C106.66 18.005 104.077 16.9652 103.804 13.9417C103.747 13.3955 103.747 13.175 103.747 12.8444V5.92524C103.747 5.65212 103.804 5.10108 103.804 4.82316C104.188 1.7517 106.66 0.764621 109.569 0.764621C112.477 0.764621 115.007 1.7517 115.333 4.82795C115.391 5.32149 115.391 5.92524 115.391 5.92524V6.47629H111.27V5.54191C111.27 5.54191 111.27 5.15858 111.217 4.93816C111.16 4.55483 110.834 3.73066 109.569 3.73066C108.361 3.73066 108.035 4.49733 107.92 4.93816C107.868 5.15379 107.868 5.4317 107.868 5.70483V13.2277C107.868 13.4482 107.868 13.6686 107.92 13.8315C107.92 14.2723 108.361 15.0438 109.516 15.0438Z" fill="white"/>
</svg>
