<svg width="55" height="59" viewBox="0 0 55 59" fill="none" xmlns="http://www.w3.org/2000/svg">
<path d="M27.1953 13.1816L32.8043 5.74267C32.8043 5.74267 42.4247 5.96392 52.002 10.7921C49.5499 14.8139 44.6796 16.7855 44.6796 16.7855C44.3488 13.248 42.0644 12.3851 34.8123 12.3851L27.1953 59L19.533 12.3752C12.3263 12.3752 10.0419 13.2455 9.70873 16.7806C9.70873 16.7806 4.8453 14.8262 2.39092 10.8068C11.9659 5.97621 21.5863 5.7525 21.5863 5.7525L27.1953 13.1816L27.1862 13.1865H27.1953V13.1816ZM27.1953 3.59654C34.9346 3.52279 43.798 4.89454 52.8677 9.20154C54.0801 6.82188 54.3906 5.77217 54.3906 5.77217C44.4757 1.5045 35.1907 0.036875 27.1953 0C19.1999 0.036875 9.91496 1.49958 0 5.77462C0 5.77462 0.441924 7.06525 1.52294 9.20646C10.5926 4.88962 19.456 3.52771 27.1953 3.58917V3.59654Z" fill="white"/>
</svg>
