<svg width="244" height="63" viewBox="0 0 244 63" fill="none" xmlns="http://www.w3.org/2000/svg">
<path d="M2.8353 0.894029C2.00822 0.846917 1.29954 1.47921 1.25243 2.3063L0.484699 15.7845C0.437587 16.6115 1.06988 17.3202 1.89697 17.3673C2.72405 17.4144 3.43273 16.7821 3.47984 15.9551L4.16227 3.97448L16.1428 4.6569C16.9699 4.70401 17.6786 4.07172 17.7257 3.24463C17.7728 2.41755 17.1405 1.70887 16.3135 1.66176L2.8353 0.894029ZM65.6667 36.933L65.1674 35.5185L65.6667 36.933ZM80.875 13.2893L81.5563 11.953L80.875 13.2893ZM47.75 13.3531L48.8749 14.3454L47.75 13.3531ZM73.1667 47.4483L73.8902 46.1344L73.1667 47.4483ZM163.583 60.8315L163.55 59.3319L163.583 60.8315ZM227.25 49.424C227.25 53.8422 230.832 57.424 235.25 57.424C239.668 57.424 243.25 53.8422 243.25 49.424C243.25 45.0057 239.668 41.424 235.25 41.424C230.832 41.424 227.25 45.0057 227.25 49.424ZM3.73203 5.76572C4.27906 6.38785 5.22686 6.44872 5.84899 5.90169C6.47111 5.35465 6.53199 4.40685 5.98495 3.78473L3.73203 5.76572ZM10.1989 8.57416C9.64933 7.95423 8.7013 7.89716 8.08137 8.44669C7.46144 8.99621 7.40437 9.94424 7.9539 10.5642L10.1989 8.57416ZM12.2566 15.3274C12.8191 15.9355 13.7682 15.9724 14.3763 15.4099C14.9844 14.8473 15.0214 13.8983 14.4588 13.2902L12.2566 15.3274ZM18.8332 17.8647C18.2494 17.2769 17.2997 17.2736 16.7119 17.8573C16.124 18.441 16.1207 19.3908 16.7045 19.9786L18.8332 17.8647ZM21.3626 24.4523C21.9749 25.0102 22.9236 24.9662 23.4816 24.3539C24.0396 23.7415 23.9955 22.7928 23.3832 22.2348L21.3626 24.4523ZM28.1588 26.3166C27.5106 25.8006 26.5669 25.9078 26.051 26.5559C25.535 27.2041 25.6422 28.1478 26.2903 28.6637L28.1588 26.3166ZM31.5518 32.5039C32.2425 32.9612 33.1732 32.772 33.6306 32.0812C34.0879 31.3905 33.8987 30.4598 33.208 30.0024L31.5518 32.5039ZM38.5626 33.1433C37.8244 32.7672 36.9212 33.0608 36.5452 33.799C36.1692 34.5372 36.4627 35.4404 37.2009 35.8164L38.5626 33.1433ZM43.2726 38.3924C44.0574 38.6577 44.9087 38.2366 45.174 37.4518C45.4393 36.667 45.0182 35.8157 44.2334 35.5504L43.2726 38.3924ZM50.1663 37.0024C49.3471 36.8795 48.5833 37.4439 48.4604 38.2632C48.3374 39.0825 48.9019 39.8462 49.7212 39.9692L50.1663 37.0024ZM56.381 40.3067C57.2084 40.2657 57.8459 39.5617 57.8048 38.7343C57.7638 37.9068 57.0598 37.2694 56.2324 37.3104L56.381 40.3067ZM62.2388 36.4051C61.4356 36.6079 60.9489 37.4235 61.1518 38.2267C61.3547 39.0299 62.1703 39.5166 62.9735 39.3137L62.2388 36.4051ZM69.1151 37.2642C69.8881 36.9663 70.2732 36.0981 69.9752 35.3251C69.6772 34.5521 68.8091 34.167 68.0361 34.465L69.1151 37.2642ZM73.5093 32.0045C72.7809 32.3991 72.5102 33.3094 72.9047 34.0379C73.2993 34.7663 74.2096 35.037 74.9381 34.6425L73.5093 32.0045ZM80.3012 30.7756C80.8855 30.1884 80.8832 29.2386 80.296 28.6543C79.7087 28.0699 78.759 28.0723 78.1746 28.6595L80.3012 30.7756ZM80.9127 24.0632C80.6996 24.8637 81.1757 25.6855 81.9762 25.8987C82.7768 26.1118 83.5985 25.6357 83.8117 24.8351L80.9127 24.0632ZM84.3672 19.2797C84.4275 18.4535 83.8066 17.7348 82.9804 17.6745C82.1541 17.6142 81.4355 18.2352 81.3752 19.0614L84.3672 19.2797ZM81.0954 15.4953C81.4717 16.2333 82.375 16.5266 83.1131 16.1503C83.8511 15.774 84.1443 14.8706 83.768 14.1326L81.0954 15.4953ZM79.3389 10.9568C78.5674 10.655 77.6973 11.0358 77.3955 11.8073C77.0937 12.5788 77.4745 13.4488 78.246 13.7506L79.3389 10.9568ZM74.1241 12.5736C74.9376 12.73 75.7239 12.1973 75.8804 11.3838C76.0368 10.5703 75.5041 9.78397 74.6906 9.62753L74.1241 12.5736ZM69.97 9.05497C69.1432 9.00328 68.431 9.63164 68.3793 10.4585C68.3276 11.2853 68.956 11.9974 69.7828 12.0491L69.97 9.05497ZM65.3043 11.9243C66.1327 11.9283 66.8075 11.26 66.8116 10.4316C66.8156 9.60315 66.1473 8.92833 65.3189 8.92431L65.3043 11.9243ZM59.065 8.77195C58.2378 8.72736 57.531 9.36182 57.4865 10.1891C57.4419 11.0163 58.0763 11.723 58.9036 11.7676L59.065 8.77195ZM51.5707 12.3806C52.3357 12.0628 52.6982 11.185 52.3804 10.4199C52.0625 9.65491 51.1847 9.29239 50.4197 9.61022L51.5707 12.3806ZM45.0836 15.4838C44.8845 16.288 45.3749 17.1013 46.1791 17.3004C46.9832 17.4995 47.7965 17.009 47.9956 16.2049L45.0836 15.4838ZM47.8058 21.2792C47.7333 20.4539 47.0056 19.8437 46.1803 19.9162C45.3551 19.9887 44.7448 20.7164 44.8173 21.5417L47.8058 21.2792ZM46.0746 27.679C46.3976 28.4418 47.2779 28.7984 48.0407 28.4754C48.8036 28.1524 49.1602 27.2722 48.8372 26.5093L46.0746 27.679ZM51.8955 31.1353C51.3458 30.5155 50.3977 30.4587 49.778 31.0084C49.1582 31.5581 49.1013 32.5061 49.651 33.1259L51.8955 31.1353ZM54.2397 37.4416C54.8837 37.9627 55.8282 37.863 56.3493 37.219C56.8704 36.575 56.7708 35.6305 56.1268 35.1094L54.2397 37.4416ZM60.9093 38.5893C60.219 38.1312 59.2881 38.3195 58.8301 39.0098C58.372 39.7 58.5603 40.6309 59.2506 41.089L60.9093 38.5893ZM64.4738 44.3259C65.1891 44.7437 66.1077 44.5024 66.5255 43.787C66.9432 43.0716 66.702 42.153 65.9866 41.7353L64.4738 44.3259ZM71.2305 44.6804C70.5036 44.283 69.5922 44.5502 69.1948 45.277C68.7974 46.0039 69.0645 46.9153 69.7914 47.3127L71.2305 44.6804ZM75.0407 50.1394C75.7786 50.5158 76.682 50.2227 77.0585 49.4847C77.4349 48.7468 77.1418 47.8434 76.4038 47.467L75.0407 50.1394ZM81.5516 49.8937C80.7917 49.5637 79.9082 49.9122 79.5782 50.672C79.2482 51.4319 79.5967 52.3154 80.3565 52.6454L81.5516 49.8937ZM85.811 54.8226C86.5891 55.107 87.4503 54.7067 87.7347 53.9286C88.019 53.1505 87.6188 52.2893 86.8407 52.0049L85.811 54.8226ZM92.2477 53.8094C91.455 53.5689 90.6174 54.0167 90.3769 54.8094C90.1365 55.6022 90.5842 56.4398 91.377 56.6802L92.2477 53.8094ZM97.0291 58.2339C97.8332 58.433 98.6465 57.9426 98.8457 57.1384C99.0448 56.3343 98.5543 55.521 97.7502 55.3219L97.0291 58.2339ZM103.327 56.5617C102.515 56.4007 101.726 56.929 101.565 57.7417C101.404 58.5543 101.932 59.3436 102.745 59.5045L103.327 56.5617ZM108.504 60.5165C109.323 60.6429 110.089 60.0816 110.215 59.2629C110.342 58.4442 109.781 57.678 108.962 57.5516L108.504 60.5165ZM114.638 58.3165C113.816 58.221 113.071 58.8107 112.976 59.6336C112.88 60.4565 113.47 61.201 114.293 61.2965L114.638 58.3165ZM120.098 61.8718C120.923 61.9404 121.648 61.3266 121.717 60.501C121.785 59.6755 121.171 58.9506 120.346 58.8821L120.098 61.8718ZM126.075 59.2745C125.248 59.2292 124.54 59.863 124.495 60.6902C124.45 61.5174 125.084 62.2247 125.911 62.27L126.075 59.2745ZM131.725 62.518C132.553 62.5438 133.246 61.8936 133.271 61.0655C133.297 60.2375 132.647 59.5453 131.819 59.5194L131.725 62.518ZM137.574 59.6421C136.745 59.6321 136.066 60.2955 136.056 61.1238C136.046 61.9522 136.709 62.6319 137.537 62.6419L137.574 59.6421ZM143.344 62.6673C144.173 62.6651 144.842 61.9917 144.84 61.1632C144.838 60.3348 144.164 59.6651 143.336 59.6673L143.344 62.6673ZM149.105 59.619C148.276 59.6301 147.614 60.3105 147.625 61.1389C147.636 61.9672 148.316 62.6298 149.145 62.6187L149.105 59.619ZM154.938 62.5203C155.767 62.5038 156.425 61.819 156.408 60.9907C156.392 60.1624 155.707 59.5044 154.879 59.5209L154.938 62.5203ZM160.658 59.3965C159.83 59.4151 159.174 60.1016 159.192 60.9298C159.211 61.758 159.897 62.4143 160.725 62.3958L160.658 59.3965ZM166.664 62.2539C167.493 62.2301 168.145 61.5396 168.121 60.7115C168.097 59.8834 167.407 59.2314 166.578 59.2551L166.664 62.2539ZM172.625 59.0369C171.797 59.0733 171.156 59.7737 171.192 60.6014C171.228 61.429 171.929 62.0704 172.757 62.034L172.625 59.0369ZM178.85 61.7124C179.676 61.661 180.305 60.9491 180.254 60.1223C180.202 59.2955 179.49 58.6668 178.664 58.7182L178.85 61.7124ZM184.689 58.2817C183.863 58.3505 183.25 59.0755 183.318 59.901C183.387 60.7266 184.112 61.3401 184.938 61.2714L184.689 58.2817ZM191.02 60.6933C191.843 60.6049 192.44 59.8655 192.351 59.0418C192.263 58.2181 191.523 57.622 190.7 57.7104L191.02 60.6933ZM196.69 56.9884C195.869 57.0986 195.293 57.8535 195.403 58.6745C195.513 59.4956 196.268 60.0719 197.089 59.9618L196.69 56.9884ZM203.139 59.0628C203.956 58.9292 204.511 58.1581 204.377 57.3406C204.244 56.523 203.473 55.9685 202.655 56.1021L203.139 59.0628ZM208.589 55.0407C207.776 55.1989 207.245 55.9865 207.403 56.7996C207.562 57.6128 208.349 58.1437 209.162 57.9854L208.589 55.0407ZM215.15 56.7227C215.958 56.5391 216.464 55.7354 216.281 54.9276C216.097 54.1197 215.293 53.6137 214.486 53.7973L215.15 56.7227ZM220.339 52.3692C219.538 52.5782 219.057 53.3975 219.266 54.1992C219.475 55.0008 220.295 55.4812 221.096 55.2721L220.339 52.3692ZM226.995 53.6348C227.789 53.4008 228.244 52.5669 228.01 51.7722C227.776 50.9775 226.942 50.5229 226.147 50.757L226.995 53.6348ZM231.902 48.9664C231.115 49.2245 230.686 50.0718 230.944 50.859C231.202 51.6462 232.049 52.0752 232.836 51.8172L231.902 48.9664ZM1.63074 3.39023C2.31251 4.15436 3.01273 4.94769 3.73203 5.76572L5.98495 3.78473C5.26364 2.96441 4.55801 2.16493 3.86926 1.39298L1.63074 3.39023ZM7.9539 10.5642C9.33377 12.1208 10.7689 13.7192 12.2566 15.3274L14.4588 13.2902C12.9905 11.7029 11.5704 10.1215 10.1989 8.57416L7.9539 10.5642ZM16.7045 19.9786C18.2104 21.495 19.7636 22.9952 21.3626 24.4523L23.3832 22.2348C21.8267 20.8164 20.3097 19.3515 18.8332 17.8647L16.7045 19.9786ZM26.2903 28.6637C27.9969 30.0222 29.7512 31.3117 31.5518 32.5039L33.208 30.0024C31.4892 28.8645 29.8057 27.6277 28.1588 26.3166L26.2903 28.6637ZM37.2009 35.8164C39.1735 36.8213 41.198 37.6911 43.2726 38.3924L44.2334 35.5504C42.3104 34.9003 40.4198 34.0893 38.5626 33.1433L37.2009 35.8164ZM49.7212 39.9692C51.8968 40.2956 54.1177 40.4189 56.381 40.3067L56.2324 37.3104C54.1761 37.4123 52.1541 37.3006 50.1663 37.0024L49.7212 39.9692ZM62.9735 39.3137C64.0313 39.0465 65.0956 38.7253 66.1659 38.3475L65.1674 35.5185C64.1824 35.8662 63.2062 36.1607 62.2388 36.4051L62.9735 39.3137ZM66.1659 38.3475C67.1488 38.0005 68.1368 37.6413 69.1151 37.2642L68.0361 34.465C67.0928 34.8286 66.1333 35.1776 65.1674 35.5185L66.1659 38.3475ZM74.9381 34.6425C76.9317 33.5627 78.7822 32.3021 80.3012 30.7756L78.1746 28.6595C76.9249 29.9154 75.3392 31.0134 73.5093 32.0045L74.9381 34.6425ZM83.8117 24.8351C84.0996 23.7539 84.25 22.6045 84.25 21.383H81.25C81.25 22.3556 81.1306 23.2449 80.9127 24.0632L83.8117 24.8351ZM84.25 21.383C84.25 20.7531 84.3092 20.0753 84.3672 19.2797L81.3752 19.0614C81.3224 19.7851 81.25 20.6127 81.25 21.383H84.25ZM83.768 14.1326C83.3103 13.2348 82.5903 12.4802 81.5563 11.953L80.1937 14.6257C80.6621 14.8645 80.9243 15.1597 81.0954 15.4953L83.768 14.1326ZM81.5563 11.953C80.8179 11.5765 80.079 11.2463 79.3389 10.9568L78.246 13.7506C78.8959 14.0048 79.5446 14.2948 80.1937 14.6257L81.5563 11.953ZM74.6906 9.62753C73.1205 9.3256 71.5477 9.15361 69.97 9.05497L69.7828 12.0491C71.2692 12.1421 72.7103 12.3017 74.1241 12.5736L74.6906 9.62753ZM65.3189 8.92431C64.5611 8.92063 63.795 8.92152 63.0278 8.92152V11.9215C63.8001 11.9215 64.5559 11.9206 65.3043 11.9243L65.3189 8.92431ZM63.0278 8.92152C61.6907 8.92152 60.3864 8.84316 59.065 8.77195L58.9036 11.7676C60.1941 11.8371 61.5914 11.9215 63.0278 11.9215V8.92152ZM50.4197 9.61022C49.0438 10.1818 47.7707 11.0621 46.6251 12.3608L48.8749 14.3454C49.721 13.3861 50.6192 12.7759 51.5707 12.3806L50.4197 9.61022ZM46.6251 12.3608C45.8281 13.2643 45.359 14.3714 45.0836 15.4838L47.9956 16.2049C48.1968 15.3924 48.4949 14.7762 48.8749 14.3454L46.6251 12.3608ZM44.8173 21.5417C44.9106 22.6041 45.0441 23.5929 45.1526 24.3895L48.1252 23.9846C48.0165 23.1868 47.8921 22.2622 47.8058 21.2792L44.8173 21.5417ZM45.1526 24.3895C45.3067 25.5211 45.6259 26.6191 46.0746 27.679L48.8372 26.5093C48.4795 25.6644 48.2394 24.8231 48.1252 23.9846L45.1526 24.3895ZM49.651 33.1259C50.9976 34.6442 52.5637 36.0854 54.2397 37.4416L56.1268 35.1094C54.5433 33.8281 53.1057 32.4999 51.8955 31.1353L49.651 33.1259ZM59.2506 41.089C60.9911 42.244 62.7613 43.3258 64.4738 44.3259L65.9866 41.7353C64.3089 40.7555 62.5897 39.7044 60.9093 38.5893L59.2506 41.089ZM69.7914 47.3127C70.7475 47.8354 71.6327 48.3161 72.4432 48.7623L73.8902 46.1344C73.0751 45.6856 72.1752 45.197 71.2305 44.6804L69.7914 47.3127ZM72.4432 48.7623C73.305 49.2369 74.1709 49.6957 75.0407 50.1394L76.4038 47.467C75.562 47.0376 74.7241 46.5935 73.8902 46.1344L72.4432 48.7623ZM80.3565 52.6454C82.1606 53.4289 83.9792 54.1532 85.811 54.8226L86.8407 52.0049C85.063 51.3553 83.2996 50.6529 81.5516 49.8937L80.3565 52.6454ZM91.377 56.6802C93.2497 57.2483 95.1342 57.7647 97.0291 58.2339L97.7502 55.3219C95.9034 54.8645 94.0688 54.3617 92.2477 53.8094L91.377 56.6802ZM102.745 59.5045C104.656 59.8831 106.576 60.219 108.504 60.5165L108.962 57.5516C107.073 57.2602 105.195 56.9316 103.327 56.5617L102.745 59.5045ZM114.293 61.2965C116.222 61.5204 118.157 61.7108 120.098 61.8718L120.346 58.8821C118.436 58.7236 116.533 58.5364 114.638 58.3165L114.293 61.2965ZM125.911 62.27C127.846 62.376 129.784 62.4573 131.725 62.518L131.819 59.5194C129.899 59.4594 127.984 59.3791 126.075 59.2745L125.911 62.27ZM137.537 62.6419C139.472 62.6654 141.408 62.6725 143.344 62.6673L143.336 59.6673C141.413 59.6725 139.492 59.6654 137.574 59.6421L137.537 62.6419ZM149.145 62.6187C151.077 62.5929 153.009 62.5587 154.938 62.5203L154.879 59.5209C152.954 59.5592 151.029 59.5933 149.105 59.619L149.145 62.6187ZM160.725 62.3958C161.69 62.3742 162.654 62.3525 163.616 62.3312L163.55 59.3319C162.587 59.3532 161.622 59.3749 160.658 59.3965L160.725 62.3958ZM163.616 62.3312C164.639 62.3086 165.655 62.2829 166.664 62.2539L166.578 59.2551C165.575 59.2839 164.566 59.3094 163.55 59.3319L163.616 62.3312ZM172.757 62.034C174.808 61.9439 176.838 61.8373 178.85 61.7124L178.664 58.7182C176.672 58.8419 174.66 58.9475 172.625 59.0369L172.757 62.034ZM184.938 61.2714C186.98 61.1014 189.006 60.9095 191.02 60.6933L190.7 57.7104C188.71 57.9239 186.708 58.1136 184.689 58.2817L184.938 61.2714ZM197.089 59.9618C199.113 59.6903 201.128 59.3915 203.139 59.0628L202.655 56.1021C200.673 56.426 198.686 56.7206 196.69 56.9884L197.089 59.9618ZM209.162 57.9854C211.157 57.5971 213.152 57.177 215.15 56.7227L214.486 53.7973C212.518 54.2445 210.554 54.6582 208.589 55.0407L209.162 57.9854ZM221.096 55.2721C223.054 54.7616 225.019 54.2165 226.995 53.6348L226.147 50.757C224.201 51.3299 222.267 51.8666 220.339 52.3692L221.096 55.2721ZM232.836 51.8172C233.8 51.5013 234.767 51.1764 235.738 50.8423L234.762 48.0056C233.805 48.335 232.852 48.6552 231.902 48.9664L232.836 51.8172Z" fill="white"/>
</svg>
