<svg width="171" height="47" viewBox="0 0 171 47" fill="none" xmlns="http://www.w3.org/2000/svg">
<path d="M1.58245 14.7672C0.759208 14.8597 0.166852 15.6021 0.259387 16.4254L1.76733 29.8409C1.85987 30.6641 2.60225 31.2565 3.4255 31.1639C4.24874 31.0714 4.84109 30.329 4.74856 29.5058L3.40816 17.5809L15.3331 16.2405C16.1563 16.1479 16.7487 15.4056 16.6561 14.5823C16.5636 13.7591 15.8212 13.1667 14.998 13.2593L1.58245 14.7672ZM48.9722 42.3689L48.6644 43.837L48.9722 42.3689ZM111.611 43.0634L111.746 44.5573L111.611 43.0634ZM145.917 28.8967L144.8 27.8951L145.917 28.8967ZM155 8.75781C155 13.1761 158.582 16.7578 163 16.7578C167.418 16.7578 171 13.1761 171 8.75781C171 4.33953 167.418 0.757812 163 0.757812C158.582 0.757812 155 4.33953 155 8.75781ZM2.94883 19.1474C3.59228 19.6692 4.53689 19.5706 5.05868 18.9271C5.58047 18.2837 5.48184 17.3391 4.83839 16.8173L2.94883 19.1474ZM9.08282 20.3046C8.44546 19.7754 7.49977 19.8631 6.97055 20.5004C6.44133 21.1378 6.52899 22.0835 7.16635 22.6127L9.08282 20.3046ZM11.3823 26.1219C12.0199 26.6508 12.9656 26.5627 13.4945 25.9251C14.0234 25.2874 13.9352 24.3418 13.2976 23.8129L11.3823 26.1219ZM17.526 27.2498C16.8752 26.7373 15.9321 26.8493 15.4195 27.5002C14.9069 28.151 15.019 29.0941 15.6698 29.6067L17.526 27.2498ZM20.1453 32.9304C20.8273 33.4007 21.7614 33.2291 22.2317 32.5471C22.702 31.8651 22.5304 30.931 21.8484 30.4607L20.1453 32.9304ZM26.3752 33.2788C25.6506 32.8772 24.7377 33.1391 24.3362 33.8637C23.9346 34.5884 24.1965 35.5013 24.9211 35.9028L26.3752 33.2788ZM29.9893 38.3732C30.7514 38.698 31.6325 38.3436 31.9573 37.5815C32.2821 36.8194 31.9276 35.9383 31.1655 35.6134L29.9893 38.3732ZM36.1736 37.4944C35.3872 37.2338 34.5385 37.66 34.2779 38.4464C34.0173 39.2328 34.4435 40.0815 35.2299 40.3421L36.1736 37.4944ZM40.5689 41.929C41.3692 42.1431 42.1915 41.6679 42.4056 40.8676C42.6198 40.0674 42.1446 39.245 41.3443 39.0309L40.5689 41.929ZM46.6144 40.3218C45.8063 40.1397 45.0035 40.6473 44.8214 41.4554C44.6394 42.2636 45.1469 43.0664 45.9551 43.2484L46.6144 40.3218ZM51.8007 44.4354C52.617 44.5765 53.3932 44.0292 53.5343 43.2129C53.6755 42.3966 53.1282 41.6204 52.3119 41.4792L51.8007 44.4354ZM58.45 42.3509C57.6269 42.2571 56.8836 42.8483 56.7898 43.6714C56.6959 44.4945 57.2871 45.2378 58.1102 45.3316L58.45 42.3509ZM64.4354 45.9037C65.2619 45.9605 65.9779 45.3366 66.0347 44.5101C66.0915 43.6837 65.4676 42.9676 64.6411 42.9108L64.4354 45.9037ZM70.8646 43.2224C70.0366 43.1953 69.3435 43.8446 69.3164 44.6726C69.2893 45.5005 69.9386 46.1937 70.7666 46.2208L70.8646 43.2224ZM77.0954 46.3316C77.9238 46.3343 78.5976 45.6649 78.6003 44.8365C78.603 44.008 77.9336 43.3343 77.1052 43.3316L77.0954 46.3316ZM83.354 43.2732C82.5257 43.2908 81.8685 43.9764 81.8861 44.8047C81.9037 45.6329 82.5893 46.2901 83.4176 46.2725L83.354 43.2732ZM89.731 46.0719C90.5587 46.0373 91.2016 45.3383 91.1671 44.5106C91.1325 43.6829 90.4335 43.0399 89.6058 43.0745L89.731 46.0719ZM95.8573 42.7576C95.0303 42.8065 94.3995 43.5165 94.4484 44.3435C94.4973 45.1705 95.2073 45.8013 96.0343 45.7524L95.8573 42.7576ZM102.326 45.3335C103.152 45.2726 103.773 44.5536 103.712 43.7274C103.651 42.9012 102.932 42.2807 102.106 42.3416L102.326 45.3335ZM108.356 41.8434C107.531 41.9138 106.919 42.6401 106.989 43.4655C107.06 44.2909 107.786 44.9029 108.611 44.8325L108.356 41.8434ZM114.945 44.2661C115.77 44.1894 116.376 43.4586 116.3 42.6337C116.223 41.8088 115.492 41.2023 114.667 41.279L114.945 44.2661ZM121.004 40.6121C120.182 40.7153 119.6 41.4653 119.703 42.2873C119.806 43.1093 120.556 43.6919 121.378 43.5887L121.004 40.6121ZM127.85 42.4841C128.656 42.2956 129.157 41.4888 128.969 40.6821C128.78 39.8754 127.974 39.3743 127.167 39.5627L127.85 42.4841ZM132.929 37.6063C132.18 37.96 131.859 38.854 132.213 39.6031C132.567 40.3523 133.461 40.6728 134.21 40.3191L132.929 37.6063ZM139.92 36.751C140.572 36.2397 140.686 35.2968 140.175 34.645C139.663 33.9932 138.72 33.8793 138.069 34.3906L139.92 36.751ZM142.651 30.2032C142.074 30.7976 142.088 31.7472 142.682 32.3243C143.277 32.9013 144.226 32.8873 144.804 32.2929L142.651 30.2032ZM149.242 27.4544C149.799 26.8412 149.753 25.8925 149.14 25.3355C148.527 24.7784 147.578 24.8239 147.021 25.4371L149.242 27.4544ZM151.454 20.5496C150.9 21.1659 150.951 22.1143 151.568 22.6679C152.184 23.2214 153.132 23.1706 153.686 22.5542L151.454 20.5496ZM158.066 17.548C158.601 16.9153 158.521 15.9689 157.889 15.4341C157.256 14.8993 156.309 14.9788 155.775 15.6115L158.066 17.548ZM159.859 10.5239C159.359 11.1849 159.49 12.1255 160.151 12.6249C160.812 13.1243 161.753 12.9934 162.252 12.3324L159.859 10.5239ZM0.814453 17.4303C1.54927 18.0166 2.25995 18.5888 2.94883 19.1474L4.83839 16.8173C4.14389 16.2541 3.42703 15.677 2.68555 15.0853L0.814453 17.4303ZM7.16635 22.6127C8.64679 23.8419 10.0693 25.0328 11.3823 26.1219L13.2976 23.8129C11.963 22.7059 10.5983 21.563 9.08282 20.3046L7.16635 22.6127ZM15.6698 29.6067C17.1785 30.7948 18.6496 31.899 20.1453 32.9304L21.8484 30.4607C20.4191 29.4751 19.0006 28.4111 17.526 27.2498L15.6698 29.6067ZM24.9211 35.9028C26.5078 36.7821 28.1768 37.6007 29.9893 38.3732L31.1655 35.6134C29.4469 34.8809 27.8707 34.1075 26.3752 33.2788L24.9211 35.9028ZM35.2299 40.3421C36.8815 40.8895 38.6517 41.416 40.5689 41.929L41.3443 39.0309C39.4766 38.5312 37.7631 38.0212 36.1736 37.4944L35.2299 40.3421ZM45.9551 43.2484C46.83 43.4456 47.7326 43.6416 48.6644 43.837L49.28 40.9008C48.3619 40.7083 47.474 40.5155 46.6144 40.3218L45.9551 43.2484ZM48.6644 43.837C49.6926 44.0526 50.7388 44.2517 51.8007 44.4354L52.3119 41.4792C51.2828 41.3013 50.2715 41.1087 49.28 40.9008L48.6644 43.837ZM58.1102 45.3316C60.1804 45.5676 62.2931 45.7565 64.4354 45.9037L64.6411 42.9108C62.539 42.7663 60.4712 42.5814 58.45 42.3509L58.1102 45.3316ZM70.7666 46.2208C72.8633 46.2893 74.9767 46.3247 77.0954 46.3316L77.1052 43.3316C75.0132 43.3248 72.9293 43.2899 70.8646 43.2224L70.7666 46.2208ZM83.4176 46.2725C85.5311 46.2277 87.6393 46.1593 89.731 46.0719L89.6058 43.0745C87.5327 43.1611 85.4451 43.2289 83.354 43.2732L83.4176 46.2725ZM96.0343 45.7524C98.1656 45.6264 100.267 45.485 102.326 45.3335L102.106 42.3416C100.06 42.4922 97.9726 42.6326 95.8573 42.7576L96.0343 45.7524ZM108.611 44.8325C109.673 44.7419 110.719 44.6499 111.746 44.5573L111.477 41.5694C110.454 41.6616 109.413 41.7532 108.356 41.8434L108.611 44.8325ZM111.746 44.5573C112.856 44.4573 113.921 44.3612 114.945 44.2661L114.667 41.279C113.649 41.3736 112.587 41.4694 111.477 41.5694L111.746 44.5573ZM121.378 43.5887C123.732 43.2931 125.865 42.9476 127.85 42.4841L127.167 39.5627C125.321 39.9941 123.3 40.3239 121.004 40.6121L121.378 43.5887ZM134.21 40.3191C136.169 39.3939 138.033 38.2316 139.92 36.751L138.069 34.3906C136.341 35.7458 134.667 36.7854 132.929 37.6063L134.21 40.3191ZM144.804 32.2929C145.529 31.5461 146.27 30.7492 147.033 29.8983L144.8 27.8951C144.06 28.7205 143.345 29.4882 142.651 30.2032L144.804 32.2929ZM147.033 29.8983C147.766 29.0819 148.502 28.2682 149.242 27.4544L147.021 25.4371C146.28 26.2531 145.538 27.072 144.8 27.8951L147.033 29.8983ZM153.686 22.5542C155.164 20.9084 156.632 19.2446 158.066 17.548L155.775 15.6115C154.367 17.2767 152.921 18.9161 151.454 20.5496L153.686 22.5542ZM162.252 12.3324C162.926 11.4414 163.585 10.5373 164.229 9.61801L161.771 7.89762C161.15 8.78473 160.512 9.65941 159.859 10.5239L162.252 12.3324Z" fill="white"/>
</svg>
