<svg width="84" height="58" viewBox="0 0 84 58" fill="none" xmlns="http://www.w3.org/2000/svg">
<path d="M0.5 8.63843C0.5 13.0567 4.08172 16.6384 8.5 16.6384C12.9183 16.6384 16.5 13.0567 16.5 8.63843C16.5 4.22015 12.9183 0.638428 8.5 0.638428C4.08172 0.638428 0.5 4.22015 0.5 8.63843ZM69.1944 44.5819L68.7879 46.0257L69.1944 44.5819ZM83.3107 47.5544C83.8964 46.9686 83.8964 46.0189 83.3107 45.4331L73.7647 35.8871C73.1789 35.3013 72.2292 35.3013 71.6434 35.8871C71.0576 36.4729 71.0576 37.4227 71.6434 38.0085L80.1287 46.4937L71.6434 54.979C71.0576 55.5648 71.0576 56.5146 71.6434 57.1003C72.2292 57.6861 73.1789 57.6861 73.7647 57.1003L83.3107 47.5544ZM9.5133 11.8274C10.1001 12.4122 11.0498 12.4107 11.6346 11.8239C12.2194 11.2371 12.2179 10.2874 11.6311 9.70259L9.5133 11.8274ZM15.8962 13.7249C15.2786 13.1728 14.3304 13.2259 13.7782 13.8435C13.2261 14.4611 13.2792 15.4094 13.8968 15.9615L15.8962 13.7249ZM18.4821 19.8593C19.1262 20.3804 20.0707 20.2807 20.5918 19.6367C21.1129 18.9927 21.0132 18.0482 20.3692 17.5271L18.4821 19.8593ZM25.0194 21.116C24.3523 20.6247 23.4133 20.7672 22.922 21.4342C22.4308 22.1012 22.5732 23.0402 23.2403 23.5315L25.0194 21.116ZM28.1537 26.9892C28.8412 27.4514 29.7732 27.2688 30.2355 26.5814C30.6977 25.8939 30.5152 24.9619 29.8277 24.4996L28.1537 26.9892ZM34.7759 27.6802C34.07 27.2466 33.1462 27.4673 32.7126 28.1732C32.279 28.8791 32.4998 29.8029 33.2057 30.2365L34.7759 27.6802ZM38.3835 33.2751C39.1063 33.68 40.0204 33.4223 40.4253 32.6996C40.8302 31.9769 40.5725 31.0627 39.8498 30.6578L38.3835 33.2751ZM45.0393 33.4305C44.3009 33.0548 43.3978 33.3488 43.0221 34.0871C42.6464 34.8254 42.9403 35.7285 43.6786 36.1043L45.0393 33.4305ZM49.0836 38.7192C49.8365 39.0649 50.727 38.7347 51.0726 37.9818C51.4183 37.2289 51.0881 36.3384 50.3352 35.9928L49.0836 38.7192ZM55.7298 38.3357C54.9633 38.0216 54.0872 38.3885 53.7732 39.1551C53.4591 39.9217 53.8259 40.7977 54.5925 41.1118L55.7298 38.3357ZM60.1996 43.2691C60.9791 43.5495 61.8384 43.145 62.1188 42.3654C62.3993 41.5859 61.9947 40.7267 61.2152 40.4462L60.1996 43.2691ZM66.7876 42.3081C65.9959 42.0641 65.1563 42.508 64.9122 43.2997C64.6682 44.0914 65.1121 44.931 65.9038 45.175L66.7876 42.3081ZM72.0757 46.8596C72.8843 47.04 73.686 46.5308 73.8664 45.7223C74.0468 44.9137 73.5376 44.112 72.7291 43.9316L72.0757 46.8596ZM79.0525 44.879C78.2263 44.8185 77.5075 45.4392 77.4469 46.2654C77.3864 47.0916 78.0071 47.8105 78.8333 47.871L79.0525 44.879ZM7.41019 9.66912C8.09562 10.3939 8.79693 11.1134 9.5133 11.8274L11.6311 9.70259C10.9351 9.00895 10.2545 8.31052 9.58981 7.60774L7.41019 9.66912ZM13.8968 15.9615C15.3773 17.285 16.9076 18.5853 18.4821 19.8593L20.3692 17.5271C18.8316 16.283 17.3388 15.0146 15.8962 13.7249L13.8968 15.9615ZM23.2403 23.5315C24.8432 24.7121 26.4827 25.8656 28.1537 26.9892L29.8277 24.4996C28.1916 23.3995 26.5871 22.2707 25.0194 21.116L23.2403 23.5315ZM33.2057 30.2365C34.9073 31.2817 36.6349 32.2954 38.3835 33.2751L39.8498 30.6578C38.136 29.6977 36.4431 28.7043 34.7759 27.6802L33.2057 30.2365ZM43.6786 36.1043C45.4653 37.0135 47.2686 37.886 49.0836 38.7192L50.3352 35.9928C48.5572 35.1766 46.7902 34.3216 45.0393 33.4305L43.6786 36.1043ZM54.5925 41.1118C56.4557 41.8751 58.3264 42.5951 60.1996 43.2691L61.2152 40.4462C59.3838 39.7873 57.5537 39.0829 55.7298 38.3357L54.5925 41.1118ZM65.9038 45.175C66.866 45.4716 67.8276 45.7553 68.7879 46.0257L69.601 43.138C68.6647 42.8744 67.7267 42.5976 66.7876 42.3081L65.9038 45.175ZM68.7879 46.0257C69.9021 46.3394 70.993 46.618 72.0757 46.8596L72.7291 43.9316C71.7066 43.7034 70.6694 43.4388 69.601 43.138L68.7879 46.0257ZM78.8333 47.871C79.9467 47.9526 81.0804 47.9937 82.25 47.9937V44.9937C81.1513 44.9937 80.0908 44.9551 79.0525 44.879L78.8333 47.871Z" fill="white"/>
</svg>
