<svg width="225" height="133" viewBox="0 0 225 133" fill="none" xmlns="http://www.w3.org/2000/svg">
<path d="M0 124.003C0 128.421 3.58172 132.003 8 132.003C12.4183 132.003 16 128.421 16 124.003C16 119.585 12.4183 116.003 8 116.003C3.58172 116.003 0 119.585 0 124.003ZM33.4167 93.0303L33.1188 91.5602L33.4167 93.0303ZM67.7917 93.6039L68.1458 92.1463L67.7917 93.6039ZM85.5694 104.056L84.4022 104.998L85.5694 104.056ZM92.0972 117.439L90.598 117.488L92.0972 117.439ZM80.7778 117.12L81.4766 115.793L80.7778 117.12ZM64.8056 105.394L65.5884 104.114L64.8056 105.394ZM63 100.168L64.4927 100.02L63 100.168ZM69.3889 55.5574L70.0674 56.8952L69.3889 55.5574ZM94.9444 49.5031L95.015 48.0048L94.9444 49.5031ZM159.389 43.7037L160.588 44.6054L159.389 43.7037ZM168.556 25.6046L167.279 24.8165L168.556 25.6046ZM171.681 20.1876L173.16 20.4356L171.681 20.1876ZM216.005 15.1805C216.725 15.5917 217.641 15.3421 218.052 14.6229L224.753 2.90356C225.165 2.1844 224.915 1.26804 224.196 0.856823C223.477 0.445601 222.56 0.695233 222.149 1.41439L216.192 11.8316L205.775 5.87494C205.056 5.46372 204.14 5.71335 203.728 6.43251C203.317 7.15167 203.567 8.06802 204.286 8.47924L216.005 15.1805ZM10.2431 121.901C10.4932 121.111 10.0557 120.268 9.26589 120.018C8.47612 119.768 7.63313 120.206 7.38303 120.995L10.2431 121.901ZM9.02794 115.876C8.76692 116.662 9.19269 117.511 9.97892 117.772C10.7651 118.033 11.6141 117.607 11.8751 116.821L9.02794 115.876ZM13.6518 111.856C13.9553 111.085 13.5764 110.215 12.8056 109.911C12.0348 109.608 11.1638 109.986 10.8603 110.757L13.6518 111.856ZM13.145 105.728C12.7559 106.46 13.0333 107.368 13.7647 107.757C14.496 108.146 15.4044 107.869 15.7935 107.137L13.145 105.728ZM18.5536 102.889C19.0719 102.243 18.9683 101.299 18.322 100.78C17.6758 100.262 16.7317 100.366 16.2134 101.012L18.5536 102.889ZM20.2733 97.0151C19.6173 97.521 19.4958 98.463 20.0017 99.1189C20.5077 99.7749 21.4497 99.8965 22.1056 99.3905L20.2733 97.0151ZM26.3983 96.8102C27.1502 96.4624 27.4777 95.5709 27.1298 94.819C26.782 94.0672 25.8905 93.7397 25.1386 94.0875L26.3983 96.8102ZM30.4104 92.1977C29.6107 92.4141 29.138 93.2378 29.3544 94.0375C29.5709 94.8372 30.3946 95.3099 31.1942 95.0935L30.4104 92.1977ZM36.4927 93.998C37.3107 93.8672 37.8678 93.098 37.737 92.28C37.6062 91.4619 36.837 90.9049 36.019 91.0357L36.4927 93.998ZM41.8581 90.3261C41.0327 90.3963 40.4204 91.1223 40.4905 91.9478C40.5607 92.7732 41.2867 93.3855 42.1122 93.3154L41.8581 90.3261ZM47.7751 93.0276C48.6034 93.0132 49.2632 92.3301 49.2488 91.5018C49.2344 90.6735 48.5512 90.0137 47.7229 90.0281L47.7751 93.0276ZM53.5928 90.1193C52.7653 90.079 52.0619 90.7172 52.0217 91.5447C51.9815 92.3721 52.6197 93.0755 53.4471 93.1157L53.5928 90.1193ZM59.0957 93.5833C59.9184 93.6805 60.6641 93.0922 60.7612 92.2695C60.8583 91.4468 60.2701 90.7011 59.4474 90.604L59.0957 93.5833ZM65.2636 91.5136C64.4508 91.3534 63.662 91.8825 63.5019 92.6953C63.3417 93.5081 63.8707 94.2968 64.6835 94.457L65.2636 91.5136ZM69.8866 95.7304C70.679 95.9722 71.5173 95.5258 71.7591 94.7334C72.0008 93.941 71.5544 93.1027 70.762 92.861L69.8866 95.7304ZM75.861 94.794C75.1092 94.446 74.2177 94.7734 73.8697 95.5252C73.5218 96.2771 73.8491 97.1686 74.601 97.5165L75.861 94.794ZM78.9477 99.9751C79.6309 100.444 80.5645 100.27 81.0331 99.5864C81.5016 98.9032 81.3276 97.9695 80.6444 97.501L78.9477 99.9751ZM84.8898 101.044C84.3082 100.454 83.3585 100.448 82.7686 101.029C82.1787 101.611 82.1719 102.561 82.7535 103.151L84.8898 101.044ZM86.6609 107.934C87.1439 108.607 88.081 108.761 88.7541 108.278C89.4272 107.796 89.5814 106.858 89.0984 106.185L86.6609 107.934ZM92.8665 113.264C92.6157 112.475 91.7723 112.038 90.9827 112.289C90.1932 112.54 89.7565 113.383 90.0073 114.173L92.8665 113.264ZM90.0804 118.712C89.2824 118.935 88.8161 119.762 89.0388 120.56C89.2616 121.358 90.0889 121.824 90.8869 121.602L90.0804 118.712ZM83.2413 120.026C83.9956 120.368 84.8847 120.035 85.2273 119.28C85.5698 118.526 85.2361 117.637 84.4818 117.294L83.2413 120.026ZM79.4378 114.607C78.7385 114.163 77.8116 114.37 77.3674 115.069C76.9233 115.769 77.1301 116.696 77.8294 117.14L79.4378 114.607ZM73.6803 114.144C74.3288 114.659 75.2724 114.551 75.7879 113.903C76.3034 113.254 76.1956 112.311 75.5471 111.795L73.6803 114.144ZM71.7389 108.66C71.1004 108.133 70.1549 108.222 69.6271 108.861C69.0992 109.499 69.1889 110.445 69.8274 110.973L71.7389 108.66ZM66.002 107.987C66.6768 108.467 67.6134 108.31 68.094 107.635C68.5747 106.961 68.4173 106.024 67.7426 105.543L66.002 107.987ZM65.2084 103.639C64.8255 102.904 63.9196 102.619 63.1849 103.002C62.4503 103.385 62.1652 104.291 62.5481 105.026L65.2084 103.639ZM61.6589 101.777C61.7635 102.598 62.5145 103.18 63.3363 103.075C64.1581 102.971 64.7395 102.219 64.6348 101.398L61.6589 101.777ZM64.1816 97.3691C64.0719 96.548 63.3172 95.9713 62.4961 96.081C61.675 96.1908 61.0983 96.9454 61.2081 97.7666L64.1816 97.3691ZM60.4216 92.6342C60.5553 93.4518 61.3265 94.0061 62.144 93.8724C62.9616 93.7387 63.516 92.9675 63.3822 92.15L60.4216 92.6342ZM62.5866 87.0144C62.4743 86.1936 61.7179 85.6192 60.8971 85.7315C60.0764 85.8437 59.502 86.6001 59.6143 87.4209L62.5866 87.0144ZM59.0784 82.0938C59.1252 82.9209 59.8336 83.5534 60.6607 83.5067C61.4878 83.4599 62.1204 82.7515 62.0736 81.9244L59.0784 82.0938ZM61.9994 76.0215C62.0042 75.1931 61.3365 74.5177 60.5081 74.5129C59.6796 74.5082 59.0042 75.1759 58.9995 76.0043L61.9994 76.0215ZM59.3639 69.0828C59.2622 69.9049 59.8462 70.6539 60.6684 70.7556C61.4905 70.8573 62.2395 70.2733 62.3412 69.4512L59.3639 69.0828ZM63.907 63.3535C64.2426 62.5961 63.9008 61.71 63.1434 61.3743C62.386 61.0387 61.4999 61.3805 61.1643 62.1379L63.907 63.3535ZM65.604 56.2327C64.9636 56.7582 64.8704 57.7033 65.3959 58.3438C65.9213 58.9842 66.8665 59.0774 67.5069 58.552L65.604 56.2327ZM73.0135 55.4594C73.7647 55.11 74.0904 54.2179 73.741 53.4667C73.3916 52.7156 72.4995 52.3898 71.7483 52.7392L73.0135 55.4594ZM78.0698 50.1841C77.2842 50.4469 76.8603 51.2969 77.1231 52.0825C77.3859 52.8681 78.2358 53.292 79.0215 53.0292L78.0698 50.1841ZM85.2364 51.4767C86.0539 51.3426 86.6079 50.5712 86.4738 49.7537C86.3397 48.9362 85.5683 48.3822 84.7507 48.5163L85.2364 51.4767ZM91.5998 47.9403C90.7714 47.9497 90.1075 48.6288 90.1169 49.4572C90.1263 50.2856 90.8054 50.9495 91.6338 50.9401L91.5998 47.9403ZM98.2274 51.2878C99.0497 51.3879 99.7975 50.8024 99.8977 49.9801C99.9978 49.1577 99.4123 48.4099 98.5899 48.3098L98.2274 51.2878ZM105.587 49.5759C104.78 49.3891 103.974 49.892 103.787 50.6992C103.601 51.5063 104.103 52.3119 104.911 52.4987L105.587 49.5759ZM111.568 54.2424C112.365 54.4675 113.194 54.0037 113.419 53.2064C113.644 52.4092 113.181 51.5804 112.383 51.3553L111.568 54.2424ZM119.063 53.2424C118.264 53.0246 117.439 53.4959 117.221 54.2952C117.003 55.0945 117.475 55.919 118.274 56.1369L119.063 53.2424ZM125.127 57.7992C125.939 57.9642 126.731 57.4399 126.896 56.628C127.061 55.8162 126.536 55.0243 125.725 54.8593L125.127 57.7992ZM132.422 55.8334C131.596 55.7679 130.874 56.3842 130.808 57.2101C130.743 58.0359 131.359 58.7585 132.185 58.824L132.422 55.8334ZM139.562 58.5938C140.375 58.4367 140.907 57.65 140.75 56.8366C140.593 56.0232 139.806 55.4911 138.993 55.6482L139.562 58.5938ZM145.246 53.4667C144.503 53.8339 144.199 54.7336 144.566 55.4762C144.933 56.2188 145.833 56.5231 146.576 56.1559L145.246 53.4667ZM152.787 52.2912C153.448 51.792 153.58 50.8514 153.08 50.1902C152.581 49.5291 151.641 49.3978 150.979 49.8969L152.787 52.2912ZM156.024 45.3692C155.459 45.9745 155.491 46.9237 156.096 47.4893C156.701 48.055 157.65 48.0229 158.216 47.4176L156.024 45.3692ZM162.096 42.396C162.533 41.6921 162.317 40.7674 161.613 40.3305C160.909 39.8937 159.984 40.1102 159.547 40.8141L162.096 42.396ZM161.827 36.4875C161.483 37.2408 161.814 38.131 162.567 38.4757C163.32 38.8205 164.211 38.4893 164.555 37.736L161.827 36.4875ZM166.578 33.0239C166.9 32.2606 166.543 31.3808 165.779 31.0588C165.016 30.7369 164.136 31.0947 163.814 31.858L166.578 33.0239ZM165.976 27.1312C165.596 27.8675 165.885 28.7722 166.621 29.152C167.358 29.5317 168.262 29.2427 168.642 28.5065L165.976 27.1312ZM170.653 25.2306C171.16 24.5752 171.039 23.6332 170.384 23.1265C169.729 22.6198 168.787 22.7403 168.28 23.3957L170.653 25.2306ZM169.859 21.0864C169.521 21.8427 169.86 22.7298 170.616 23.0678C171.372 23.4058 172.26 23.0666 172.598 22.3103L169.859 21.0864ZM173.94 17.4311C174.233 16.6561 173.842 15.7906 173.067 15.4979C172.292 15.2053 171.426 15.5963 171.133 16.3713L173.94 17.4311ZM176.099 10.4995C175.366 10.8862 175.086 11.7937 175.473 12.5262C175.86 13.2588 176.767 13.5392 177.5 13.1524L176.099 10.4995ZM183.445 11.8513C184.273 11.8109 184.911 11.1073 184.87 10.2799C184.83 9.45244 184.126 8.81443 183.299 8.85484L183.445 11.8513ZM190.196 8.88721C189.368 8.867 188.68 9.52199 188.66 10.3502C188.64 11.1784 189.295 11.8661 190.123 11.8863L190.196 8.88721ZM196.678 11.8324C197.506 11.7938 198.145 11.0916 198.107 10.2641C198.068 9.43659 197.366 8.79705 196.538 8.83566L196.678 11.8324ZM202.696 8.61328C201.868 8.62521 201.206 9.30638 201.218 10.1347C201.23 10.9631 201.911 11.6249 202.739 11.613L202.696 8.61328ZM208.691 11.7897C209.516 11.8649 210.246 11.257 210.321 10.432C210.396 9.60698 209.788 8.87724 208.963 8.80208L208.691 11.7897ZM215.438 10.3642C214.703 9.98115 213.797 10.2662 213.414 11.0007C213.031 11.7353 213.316 12.6413 214.051 13.0243L215.438 10.3642ZM9.42823 124.461C9.70679 123.593 9.97763 122.739 10.2431 121.901L7.38303 120.995C7.11767 121.833 6.84838 122.683 6.57177 123.544L9.42823 124.461ZM11.8751 116.821C12.4542 115.077 13.0352 113.422 13.6518 111.856L10.8603 110.757C10.2164 112.393 9.61635 114.104 9.02794 115.876L11.8751 116.821ZM15.7935 107.137C16.6155 105.592 17.5209 104.176 18.5536 102.889L16.2134 101.012C15.0439 102.47 14.0388 104.048 13.145 105.728L15.7935 107.137ZM22.1056 99.3905C23.3574 98.4249 24.774 97.5617 26.3983 96.8102L25.1386 94.0875C23.3201 94.9288 21.7102 95.9067 20.2733 97.0151L22.1056 99.3905ZM31.1942 95.0935C31.9945 94.8769 32.8337 94.6789 33.7145 94.5005L33.1188 91.5602C32.1784 91.7507 31.2763 91.9633 30.4104 92.1977L31.1942 95.0935ZM33.7145 94.5005C34.6249 94.316 35.5519 94.1485 36.4927 93.998L36.019 91.0357C35.0387 91.1924 34.0711 91.3673 33.1188 91.5602L33.7145 94.5005ZM42.1122 93.3154C43.9779 93.1568 45.872 93.0607 47.7751 93.0276L47.7229 90.0281C45.7538 90.0623 43.7924 90.1618 41.8581 90.3261L42.1122 93.3154ZM53.4471 93.1157C55.3481 93.2081 57.2374 93.3639 59.0957 93.5833L59.4474 90.604C57.5186 90.3763 55.5605 90.2149 53.5928 90.1193L53.4471 93.1157ZM64.6835 94.457C65.6171 94.641 66.536 94.8425 67.4376 95.0615L68.1458 92.1463C67.2 91.9166 66.2384 91.7057 65.2636 91.5136L64.6835 94.457ZM67.4376 95.0615C68.2686 95.2634 69.0854 95.486 69.8866 95.7304L70.762 92.861C69.9027 92.5988 69.0301 92.3611 68.1458 92.1463L67.4376 95.0615ZM74.601 97.5165C76.1357 98.2269 77.5885 99.0429 78.9477 99.9751L80.6444 97.501C79.1362 96.4667 77.5358 95.5691 75.861 94.794L74.601 97.5165ZM82.7535 103.151C83.3286 103.734 83.8786 104.349 84.4022 104.998L86.7367 103.113C86.1502 102.387 85.5339 101.698 84.8898 101.044L82.7535 103.151ZM84.4022 104.998C85.178 105.959 85.9435 106.934 86.6609 107.934L89.0984 106.185C88.333 105.118 87.5271 104.093 86.7367 103.113L84.4022 104.998ZM90.0073 114.173C90.3524 115.259 90.5608 116.362 90.598 117.488L93.5964 117.389C93.549 115.954 93.284 114.578 92.8665 113.264L90.0073 114.173ZM90.598 117.488C90.6185 118.108 90.4982 118.386 90.4306 118.491C90.3799 118.57 90.2996 118.651 90.0804 118.712L90.8869 121.602C91.6872 121.378 92.4406 120.914 92.9552 120.112C93.453 119.336 93.6297 118.397 93.5964 117.389L90.598 117.488ZM84.4818 117.294C83.2485 116.734 82.1655 116.156 81.4766 115.793L80.0789 118.447C80.7519 118.802 81.914 119.423 83.2413 120.026L84.4818 117.294ZM81.4766 115.793C80.7776 115.425 80.0999 115.028 79.4378 114.607L77.8294 117.14C78.5523 117.599 79.3004 118.037 80.0789 118.447L81.4766 115.793ZM75.5471 111.795C74.2626 110.774 73.0293 109.727 71.7389 108.66L69.8274 110.973C71.0778 112.006 72.3662 113.099 73.6803 114.144L75.5471 111.795ZM67.7426 105.543C67.0465 105.048 66.3303 104.568 65.5884 104.114L64.0227 106.673C64.696 107.085 65.3536 107.525 66.002 107.987L67.7426 105.543ZM65.5884 104.114C65.4983 104.059 65.3604 103.931 65.2084 103.639L62.5481 105.026C62.8623 105.628 63.3268 106.248 64.0227 106.673L65.5884 104.114ZM64.6348 101.398C64.5706 100.893 64.5348 100.445 64.4927 100.02L61.5073 100.316C61.5429 100.675 61.5876 101.217 61.6589 101.777L64.6348 101.398ZM64.4927 100.02C64.4042 99.1269 64.2985 98.2436 64.1816 97.3691L61.2081 97.7666C61.3213 98.6137 61.4228 99.4625 61.5073 100.316L64.4927 100.02ZM63.3822 92.15C63.0997 90.4225 62.8204 88.7238 62.5866 87.0144L59.6143 87.4209C59.8544 89.1766 60.1405 90.9158 60.4216 92.6342L63.3822 92.15ZM62.0736 81.9244C62.0262 81.0857 62 80.2424 62 79.3922H59C59 80.304 59.0281 81.204 59.0784 82.0938L62.0736 81.9244ZM62 79.3922C62 78.2744 61.9929 77.1605 61.9994 76.0215L58.9995 76.0043C58.9929 77.1527 59 78.3017 59 79.3922H62ZM62.3412 69.4512C62.6124 67.259 63.089 65.1989 63.907 63.3535L61.1643 62.1379C60.1897 64.3368 59.658 66.7062 59.3639 69.0828L62.3412 69.4512ZM67.5069 58.552C68.2461 57.9455 69.0933 57.3892 70.0674 56.8952L68.7104 54.2196C67.5501 54.8081 66.5186 55.4824 65.604 56.2327L67.5069 58.552ZM70.0674 56.8952C71.0781 56.3826 72.0572 55.9042 73.0135 55.4594L71.7483 52.7392C70.7564 53.2006 69.7463 53.6943 68.7104 54.2196L70.0674 56.8952ZM79.0215 53.0292C81.0788 52.341 83.1165 51.8244 85.2364 51.4767L84.7507 48.5163C82.4611 48.8919 80.2677 49.449 78.0698 50.1841L79.0215 53.0292ZM91.6338 50.9401C92.6739 50.9283 93.7511 50.9486 94.8739 51.0014L95.015 48.0048C93.8382 47.9494 92.7025 47.9278 91.5998 47.9403L91.6338 50.9401ZM94.8739 51.0014C95.9959 51.0543 97.1131 51.1522 98.2274 51.2878L98.5899 48.3098C97.4088 48.166 96.2175 48.0614 95.015 48.0048L94.8739 51.0014ZM104.911 52.4987C107.127 53.0116 109.339 53.6128 111.568 54.2424L112.383 51.3553C110.14 50.7217 107.874 50.1051 105.587 49.5759L104.911 52.4987ZM118.274 56.1369C120.529 56.7514 122.812 57.3286 125.127 57.7992L125.725 54.8593C123.498 54.4069 121.285 53.848 119.063 53.2424L118.274 56.1369ZM132.185 58.824C133.371 58.918 134.568 58.9693 135.778 58.9693V55.9693C134.653 55.9693 133.535 55.9216 132.422 55.8334L132.185 58.824ZM135.778 58.9693C137.04 58.9693 138.306 58.8362 139.562 58.5938L138.993 55.6482C137.904 55.8584 136.829 55.9693 135.778 55.9693V58.9693ZM146.576 56.1559C148.763 55.0745 150.859 53.7466 152.787 52.2912L150.979 49.8969C149.183 51.2534 147.245 52.4782 145.246 53.4667L146.576 56.1559ZM158.216 47.4176C159.09 46.4826 159.886 45.5381 160.588 44.6054L158.19 42.8021C157.558 43.6424 156.832 44.5054 156.024 45.3692L158.216 47.4176ZM160.588 44.6054C161.135 43.8774 161.635 43.1397 162.096 42.396L159.547 40.8141C159.129 41.4885 158.679 42.1517 158.19 42.8021L160.588 44.6054ZM164.555 37.736C165.279 36.156 165.933 34.5552 166.578 33.0239L163.814 31.858C163.151 33.4312 162.526 34.9618 161.827 36.4875L164.555 37.736ZM168.642 28.5065C169.014 27.786 169.407 27.081 169.832 26.3926L167.279 24.8165C166.808 25.5802 166.377 26.3535 165.976 27.1312L168.642 28.5065ZM169.832 26.3926C170.083 25.9862 170.356 25.6145 170.653 25.2306L168.28 23.3957C167.959 23.8109 167.611 24.2784 167.279 24.8165L169.832 26.3926ZM172.598 22.3103C172.848 21.7504 173.043 21.1345 173.16 20.4356L170.201 19.9395C170.127 20.3797 170.008 20.7514 169.859 21.0864L172.598 22.3103ZM173.16 20.4356C173.355 19.2724 173.62 18.2796 173.94 17.4311L171.133 16.3713C170.733 17.431 170.423 18.6167 170.201 19.9395L173.16 20.4356ZM177.5 13.1524C179.053 12.3321 181.023 11.9696 183.445 11.8513L183.299 8.85484C180.717 8.98093 178.229 9.3752 176.099 10.4995L177.5 13.1524ZM190.123 11.8863C191.234 11.9134 192.383 11.9369 193.556 11.9369V8.93694C192.421 8.93694 191.301 8.91417 190.196 8.88721L190.123 11.8863ZM193.556 11.9369C194.37 11.9369 195.458 11.8893 196.678 11.8324L196.538 8.83566C195.299 8.89349 194.286 8.93694 193.556 8.93694V11.9369ZM202.739 11.613C204.76 11.5839 206.815 11.6188 208.691 11.7897L208.963 8.80208C206.941 8.61783 204.769 8.58342 202.696 8.61328L202.739 11.613ZM214.051 13.0243C214.876 13.4548 215.199 13.8904 215.303 14.2726L218.197 13.4841C217.794 12.0021 216.684 11.0139 215.438 10.3642L214.051 13.0243Z" fill="white"/>
</svg>
