<svg width="242" height="74" viewBox="0 0 242 74" fill="none" xmlns="http://www.w3.org/2000/svg">
<path d="M0.75 62.2734C0.75 66.6917 4.33172 70.2734 8.75 70.2734C13.1683 70.2734 16.75 66.6917 16.75 62.2734C16.75 57.8552 13.1683 54.2734 8.75 54.2734C4.33172 54.2734 0.75 57.8552 0.75 62.2734ZM39.8611 72.2734L39.6955 73.7643L39.8611 72.2734ZM80.6944 62.2734L80.2083 60.8544L80.6944 62.2734ZM94.9306 36.3707L93.4639 36.0564L94.9306 36.3707ZM92.2917 12.3429L92.1056 13.8313L92.2917 12.3429ZM67.5 12.2734L67.5395 13.7729L67.5 12.2734ZM57.0139 39.704L55.5443 40.0046L57.0139 39.704ZM100.556 43.3845L100.264 41.9132L100.556 43.3845ZM142.917 36.9262L143.173 38.4041L142.917 36.9262ZM202.5 20.0512L202.964 21.4775L202.5 20.0512ZM241.471 5.06761C241.633 4.25527 241.107 3.46503 240.294 3.30257L227.056 0.654999C226.244 0.492531 225.454 1.01936 225.291 1.8317C225.129 2.64404 225.656 3.43427 226.468 3.59674L238.235 5.95013L235.882 17.7171C235.719 18.5294 236.246 19.3197 237.058 19.4821C237.871 19.6446 238.661 19.1178 238.823 18.3055L241.471 5.06761ZM10.7071 64.6957C11.4727 65.0121 12.3498 64.648 12.6662 63.8823C12.9826 63.1167 12.6185 62.2396 11.8528 61.9232L10.7071 64.6957ZM16.9005 64.0156C16.1343 63.7004 15.2577 64.0659 14.9425 64.832C14.6273 65.5981 14.9928 66.4747 15.7589 66.7899L16.9005 64.0156ZM20.8699 68.8314C21.6436 69.1276 22.5109 68.7406 22.8071 67.967C23.1034 67.1933 22.7164 66.326 21.9427 66.0298L20.8699 68.8314ZM27.0211 67.8458C26.234 67.5874 25.3865 68.016 25.1281 68.8031C24.8697 69.5902 25.2983 70.4377 26.0854 70.6961L27.0211 67.8458ZM31.4345 72.2547C32.2378 72.4569 33.053 71.9696 33.2552 71.1662C33.4574 70.3628 32.97 69.5476 32.1667 69.3455L31.4345 72.2547ZM37.389 70.4248C36.571 70.2938 35.8017 70.8508 35.6708 71.6689C35.5399 72.4869 36.0968 73.2561 36.9149 73.3871L37.389 70.4248ZM42.4381 73.9814C43.2656 74.0205 43.9682 73.3814 44.0073 72.5539C44.0464 71.7264 43.4072 71.0239 42.5797 70.9848L42.4381 73.9814ZM47.6985 70.9022C46.8726 70.967 46.2557 71.6891 46.3205 72.515C46.3854 73.3409 47.1075 73.9578 47.9334 73.893L47.6985 70.9022ZM53.3592 73.1497C54.1726 72.9926 54.7047 72.2059 54.5476 71.3925C54.3906 70.5791 53.6039 70.047 52.7905 70.2041L53.3592 73.1497ZM57.8227 68.9875C57.0263 69.2156 56.5656 70.0461 56.7937 70.8425C57.0217 71.6389 57.8522 72.0996 58.6487 71.8716L57.8227 68.9875ZM63.7885 70.2204C64.5701 69.9458 64.9811 69.0896 64.7065 68.308C64.432 67.5264 63.5758 67.1154 62.7942 67.39L63.7885 70.2204ZM67.7323 65.5593C66.9591 65.8569 66.5736 66.7249 66.8711 67.498C67.1687 68.2712 68.0367 68.6567 68.8098 68.3591L67.7323 65.5593ZM73.7636 66.4334C74.536 66.1339 74.9193 65.265 74.6199 64.4926C74.3204 63.7202 73.4514 63.3368 72.679 63.6363L73.7636 66.4334ZM77.6779 61.7487C76.8993 62.0316 76.4975 62.8922 76.7804 63.6708C77.0634 64.4494 77.9239 64.8512 78.7025 64.5683L77.6779 61.7487ZM83.7757 62.6626C84.5287 62.3172 84.8591 61.4268 84.5137 60.6738C84.1683 59.9208 83.2779 59.5904 82.5249 59.9358L83.7757 62.6626ZM86.5771 57.3517C85.9603 57.9048 85.9087 58.8531 86.4618 59.4699C87.0149 60.0866 87.9633 60.1382 88.58 59.5851L86.5771 57.3517ZM92.0958 54.9817C92.4721 54.2437 92.1788 53.3403 91.4407 52.9641C90.7027 52.5878 89.7993 52.8811 89.4231 53.6192L92.0958 54.9817ZM91.06 48.982C90.8627 49.7866 91.355 50.5987 92.1596 50.796C92.9642 50.9933 93.7764 50.501 93.9736 49.6964L91.06 48.982ZM95.0091 44.4085C95.146 43.5915 94.5947 42.8182 93.7776 42.6813C92.9606 42.5443 92.1872 43.0957 92.0503 43.9127L95.0091 44.4085ZM92.9413 38.6881C92.7908 39.5027 93.3293 40.2851 94.1439 40.4356C94.9586 40.586 95.7409 40.0476 95.8914 39.2329L92.9413 38.6881ZM97.0248 33.4441C97.1675 32.6281 96.6217 31.8509 95.8056 31.7081C94.9896 31.5654 94.2124 32.1113 94.0697 32.9273L97.0248 33.4441ZM94.9284 26.6012C94.8527 27.4262 95.4601 28.1563 96.285 28.232C97.11 28.3078 97.8401 27.7004 97.9159 26.8754L94.9284 26.6012ZM98.0923 20.1531C98.0433 19.3261 97.3333 18.6954 96.5063 18.7443C95.6793 18.7933 95.0486 19.5034 95.0975 20.3303L98.0923 20.1531ZM93.7288 14.8812C94.2025 15.5608 95.1374 15.7279 95.8171 15.2542C96.4968 14.7806 96.6638 13.8456 96.1901 13.166L93.7288 14.8812ZM89.3137 10.5446C88.4875 10.4842 87.7688 11.1051 87.7085 11.9313C87.6481 12.7576 88.269 13.4763 89.0952 13.5366L89.3137 10.5446ZM83.001 13.3273C83.8294 13.3292 84.5026 12.6593 84.5046 11.8309C84.5066 11.0024 83.8366 10.3293 83.0082 10.3273L83.001 13.3273ZM76.7515 10.4397C75.9235 10.467 75.2745 11.1604 75.3019 11.9884C75.3293 12.8164 76.0227 13.4654 76.8506 13.438L76.7515 10.4397ZM70.6562 13.6717C71.484 13.641 72.1303 12.9451 72.0996 12.1172C72.0689 11.2893 71.3729 10.6431 70.5451 10.6738L70.6562 13.6717ZM64.3501 11.1503C63.5424 11.3346 63.037 12.1387 63.2212 12.9463C63.4055 13.754 64.2096 14.2594 65.0172 14.0752L64.3501 11.1503ZM60.8125 16.3159C61.4012 15.7331 61.4061 14.7834 60.8233 14.1946C60.2405 13.6059 59.2907 13.601 58.702 14.1838L60.8125 16.3159ZM55.4613 19.5943C55.1958 20.379 55.6168 21.2304 56.4015 21.4959C57.1862 21.7614 58.0376 21.3404 58.3031 20.5557L55.4613 19.5943ZM57.3209 25.7417C57.3838 24.9156 56.7651 24.195 55.939 24.1322C55.113 24.0694 54.3924 24.6881 54.3296 25.5141L57.3209 25.7417ZM54.3368 31.393C54.3927 32.2196 55.1079 32.8444 55.9345 32.7886C56.761 32.7327 57.3858 32.0175 57.33 31.1909L54.3368 31.393ZM57.9797 36.6766C57.8452 35.8591 57.0736 35.3054 56.2561 35.4398C55.4387 35.5743 54.885 36.3459 55.0194 37.1634L57.9797 36.6766ZM56.5001 43.2537C56.8074 44.0231 57.6801 44.3977 58.4495 44.0904C59.2188 43.7832 59.5934 42.9104 59.2862 42.1411L56.5001 43.2537ZM62.4343 46.462C61.7774 45.9573 60.8357 46.0807 60.331 46.7377C59.8263 47.3947 59.9498 48.3364 60.6067 48.841L62.4343 46.462ZM66.9663 51.4721C67.7832 51.6101 68.5572 51.0598 68.6952 50.2429C68.8332 49.4261 68.2829 48.652 67.4661 48.514L66.9663 51.4721ZM73.2945 48.6597C72.4691 48.7303 71.8571 49.4566 71.9277 50.2821C71.9983 51.1075 72.7246 51.7194 73.55 51.6488L73.2945 48.6597ZM79.8848 50.6565C80.6946 50.4821 81.2098 49.6842 81.0354 48.8744C80.861 48.0645 80.0631 47.5494 79.2532 47.7238L79.8848 50.6565ZM85.1926 46.2174C84.3957 46.4437 83.9331 47.2732 84.1594 48.0701C84.3857 48.867 85.2152 49.3296 86.0121 49.1033L85.1926 46.2174ZM92.0092 47.3069C92.801 47.0634 93.2455 46.2241 93.002 45.4323C92.7584 44.6404 91.9191 44.1959 91.1273 44.4395L92.0092 47.3069ZM97.148 42.658C96.3482 42.8739 95.8749 43.6973 96.0908 44.4971C96.3067 45.2969 97.1301 45.7702 97.9299 45.5543L97.148 42.658ZM103.459 44.3559C104.274 44.2053 104.812 43.4228 104.661 42.6082C104.511 41.7936 103.728 41.2553 102.914 41.4059L103.459 44.3559ZM108.223 40.4852C107.405 40.6184 106.851 41.3893 106.984 42.2069C107.117 43.0246 107.888 43.5794 108.706 43.4461L108.223 40.4852ZM113.977 42.6306C114.797 42.5097 115.363 41.7474 115.242 40.9278C115.122 40.1083 114.359 39.5418 113.54 39.6627L113.977 42.6306ZM118.857 38.9061C118.036 39.0195 117.463 39.7767 117.576 40.5973C117.689 41.4179 118.447 41.9913 119.267 41.8779L118.857 38.9061ZM124.571 41.1559C125.392 41.045 125.967 40.2896 125.857 39.4686C125.746 38.6476 124.99 38.072 124.169 38.1829L124.571 41.1559ZM129.473 37.4607C128.652 37.5742 128.079 38.3314 128.192 39.152C128.306 39.9727 129.063 40.5459 129.884 40.4324L129.473 37.4607ZM135.201 39.675C136.02 39.554 136.586 38.7915 136.465 37.972C136.344 37.1524 135.582 36.5862 134.762 36.7072L135.201 39.675ZM140.034 35.8903C139.216 36.0239 138.661 36.7949 138.795 37.6125C138.928 38.4301 139.699 38.9846 140.517 38.8511L140.034 35.8903ZM146.247 37.8449C147.06 37.6901 147.595 36.9048 147.44 36.091C147.285 35.2772 146.5 34.743 145.686 34.8978L146.247 37.8449ZM151.713 33.6559C150.904 33.8349 150.393 34.6357 150.572 35.4446C150.751 36.2535 151.552 36.764 152.361 36.585L151.713 33.6559ZM158.433 35.1555C159.237 34.9554 159.726 34.1415 159.526 33.3376C159.326 32.5337 158.512 32.0443 157.708 32.2444L158.433 35.1555ZM163.673 30.6863C162.874 30.9043 162.403 31.729 162.621 32.5282C162.839 33.3274 163.663 33.7986 164.463 33.5805L163.673 30.6863ZM170.453 31.8844C171.248 31.6517 171.704 30.8185 171.471 30.0234C171.239 29.2284 170.406 28.7725 169.61 29.0053L170.453 31.8844ZM175.525 27.2251C174.734 27.4693 174.29 28.309 174.534 29.1006C174.778 29.8923 175.618 30.336 176.41 30.0918L175.525 27.2251ZM182.338 28.2271C183.127 27.9747 183.562 27.1304 183.309 26.3414C183.057 25.5523 182.212 25.1173 181.423 25.3698L182.338 28.2271ZM187.311 23.463C186.524 23.7205 186.094 24.5675 186.352 25.3549C186.609 26.1423 187.457 26.5719 188.244 26.3144L187.311 23.463ZM194.136 24.3774C194.923 24.118 195.35 23.2699 195.091 22.4831C194.831 21.6963 193.983 21.2688 193.197 21.5283L194.136 24.3774ZM199.086 19.589C198.299 19.8472 197.87 20.6947 198.129 21.4818C198.387 22.269 199.234 22.6978 200.021 22.4396L199.086 19.589ZM206.179 20.4447C206.968 20.1937 207.405 19.3502 207.154 18.5607C206.903 17.7712 206.059 17.3347 205.27 17.5857L206.179 20.4447ZM211.724 15.5398C210.935 15.7923 210.5 16.6366 210.752 17.4256C211.005 18.2146 211.849 18.6496 212.638 18.3971L211.724 15.5398ZM219.101 16.2571C219.884 15.986 220.299 15.1316 220.028 14.3488C219.757 13.566 218.902 13.1512 218.12 13.4224L219.101 16.2571ZM224.405 11.0946C223.636 11.4017 223.261 12.2743 223.568 13.0437C223.875 13.8132 224.748 14.188 225.517 13.8809L224.405 11.0946ZM231.816 11.1259C232.563 10.7668 232.877 9.87041 232.517 9.1239C232.158 8.3774 231.262 8.06342 230.515 8.42261L231.816 11.1259ZM236.367 5.29087C235.655 5.71496 235.422 6.63566 235.846 7.3473C236.27 8.05895 237.191 8.29205 237.903 7.86796L236.367 5.29087ZM8.18721 63.6639C9.03208 64.0058 9.8713 64.3503 10.7071 64.6957L11.8528 61.9232C11.013 61.5761 10.1666 61.2286 9.31279 60.883L8.18721 63.6639ZM15.7589 66.7899C17.4594 67.4897 19.1598 68.1765 20.8699 68.8314L21.9427 66.0298C20.2653 65.3874 18.5904 64.711 16.9005 64.0156L15.7589 66.7899ZM26.0854 70.6961C27.8383 71.2716 29.617 71.7973 31.4345 72.2547L32.1667 69.3455C30.4276 68.9078 28.7173 68.4026 27.0211 67.8458L26.0854 70.6961ZM36.9149 73.3871C37.8296 73.5335 38.7559 73.6599 39.6955 73.7643L40.0268 70.7826C39.1363 70.6837 38.2576 70.5638 37.389 70.4248L36.9149 73.3871ZM39.6955 73.7643C40.6212 73.8671 41.535 73.9388 42.4381 73.9814L42.5797 70.9848C41.7395 70.9451 40.889 70.8784 40.0268 70.7826L39.6955 73.7643ZM47.9334 73.893C49.7802 73.7479 51.585 73.4922 53.3592 73.1497L52.7905 70.2041C51.1156 70.5275 49.4226 70.7668 47.6985 70.9022L47.9334 73.893ZM58.6487 71.8716C60.3768 71.3767 62.0867 70.8183 63.7885 70.2204L62.7942 67.39C61.1333 67.9735 59.481 68.5126 57.8227 68.9875L58.6487 71.8716ZM68.8098 68.3591C70.4443 67.7301 72.107 67.0757 73.7636 66.4334L72.679 63.6363C70.9977 64.2882 69.3676 64.9299 67.7323 65.5593L68.8098 68.3591ZM78.7025 64.5683C79.5217 64.2706 80.3473 63.978 81.1806 63.6925L80.2083 60.8544C79.3552 61.1467 78.512 61.4455 77.6779 61.7487L78.7025 64.5683ZM81.1806 63.6925C82.1073 63.375 82.9707 63.0319 83.7757 62.6626L82.5249 59.9358C81.8186 60.2598 81.0488 60.5665 80.2083 60.8544L81.1806 63.6925ZM88.58 59.5851C90.1059 58.2167 91.2339 56.6725 92.0958 54.9817L89.4231 53.6192C88.7125 55.013 87.8024 56.2528 86.5771 57.3517L88.58 59.5851ZM93.9736 49.6964C94.3844 48.0213 94.7012 46.2459 95.0091 44.4085L92.0503 43.9127C91.7436 45.7429 91.4421 47.4236 91.06 48.982L93.9736 49.6964ZM95.8914 39.2329C96.0455 38.3982 96.2121 37.549 96.3973 36.685L93.4639 36.0564C93.2716 36.9536 93.0995 37.8313 92.9413 38.6881L95.8914 39.2329ZM96.3973 36.685C96.5407 36.0157 96.7743 34.8764 97.0248 33.4441L94.0697 32.9273C93.827 34.3146 93.6011 35.4159 93.4639 36.0564L96.3973 36.685ZM97.9159 26.8754C98.1191 24.6618 98.2207 22.3225 98.0923 20.1531L95.0975 20.3303C95.2139 22.2969 95.1237 24.4743 94.9284 26.6012L97.9159 26.8754ZM96.1901 13.166C95.3367 11.9413 94.1107 11.0586 92.4777 10.8545L92.1056 13.8313C92.7678 13.9141 93.2832 14.2416 93.7288 14.8812L96.1901 13.166ZM92.4777 10.8545C91.4328 10.7238 90.3768 10.6222 89.3137 10.5446L89.0952 13.5366C90.1128 13.6109 91.1172 13.7077 92.1056 13.8313L92.4777 10.8545ZM83.0082 10.3273C80.9211 10.3222 78.8257 10.3711 76.7515 10.4397L76.8506 13.438C78.9071 13.37 80.9635 13.3224 83.001 13.3273L83.0082 10.3273ZM70.5451 10.6738C69.504 10.7124 68.4752 10.7473 67.4605 10.774L67.5395 13.7729C68.5689 13.7458 69.6094 13.7105 70.6562 13.6717L70.5451 10.6738ZM67.4605 10.774C66.3524 10.8031 65.3163 10.9299 64.3501 11.1503L65.0172 14.0752C65.773 13.9028 66.6108 13.7974 67.5395 13.7729L67.4605 10.774ZM58.702 14.1838C57.1882 15.6823 56.1511 17.5553 55.4613 19.5943L58.3031 20.5557C58.8814 18.8462 59.7052 17.412 60.8125 16.3159L58.702 14.1838ZM54.3296 25.5141C54.1827 27.446 54.2047 29.4357 54.3368 31.393L57.33 31.1909C57.2052 29.343 57.1872 27.5005 57.3209 25.7417L54.3296 25.5141ZM55.0194 37.1634C55.1808 38.1448 55.3585 39.0963 55.5443 40.0046L58.4835 39.4034C58.3048 38.5299 58.1342 37.6166 57.9797 36.6766L55.0194 37.1634ZM55.5443 40.0046C55.7849 41.181 56.1044 42.2627 56.5001 43.2537L59.2862 42.1411C58.9631 41.332 58.6921 40.4232 58.4835 39.4034L55.5443 40.0046ZM60.6067 48.841C62.4589 50.2638 64.6376 51.0787 66.9663 51.4721L67.4661 48.514C65.5024 48.1823 63.8127 47.5208 62.4343 46.462L60.6067 48.841ZM73.55 51.6488C75.6214 51.4717 77.7547 51.1152 79.8848 50.6565L79.2532 47.7238C77.2083 48.1641 75.2051 48.4964 73.2945 48.6597L73.55 51.6488ZM86.0121 49.1033C88.0733 48.5179 90.0961 47.8953 92.0092 47.3069L91.1273 44.4395C89.209 45.0294 87.2173 45.6424 85.1926 46.2174L86.0121 49.1033ZM97.9299 45.5543C98.987 45.269 99.9626 45.0313 100.847 44.8559L100.264 41.9132C99.2901 42.1062 98.2442 42.3621 97.148 42.658L97.9299 45.5543ZM100.847 44.8559C101.717 44.6835 102.587 44.5171 103.459 44.3559L102.914 41.4059C102.03 41.5693 101.147 41.7382 100.264 41.9132L100.847 44.8559ZM108.706 43.4461C110.46 43.1602 112.217 42.8902 113.977 42.6306L113.54 39.6627C111.767 39.924 109.995 40.1964 108.223 40.4852L108.706 43.4461ZM119.267 41.8779C121.034 41.6338 122.801 41.3951 124.571 41.1559L124.169 38.1829C122.4 38.422 120.628 38.6614 118.857 38.9061L119.267 41.8779ZM129.884 40.4324C131.655 40.1875 133.428 39.9368 135.201 39.675L134.762 36.7072C133.002 36.9672 131.238 37.2165 129.473 37.4607L129.884 40.4324ZM140.517 38.8511C141.403 38.7065 142.288 38.5577 143.173 38.4041L142.66 35.4483C141.786 35.6001 140.91 35.7472 140.034 35.8903L140.517 38.8511ZM143.173 38.4041C144.201 38.2258 145.225 38.0393 146.247 37.8449L145.686 34.8978C144.68 35.0892 143.671 35.2729 142.66 35.4483L143.173 38.4041ZM152.361 36.585C154.395 36.1349 156.418 35.6571 158.433 35.1555L157.708 32.2444C155.717 32.7401 153.719 33.2118 151.713 33.6559L152.361 36.585ZM164.463 33.5805C166.466 33.0338 168.463 32.4672 170.453 31.8844L169.61 29.0053C167.636 29.5834 165.657 30.145 163.673 30.6863L164.463 33.5805ZM176.41 30.0918C178.389 29.4812 180.365 28.8583 182.338 28.2271L181.423 25.3698C179.458 25.9984 177.493 26.6181 175.525 27.2251L176.41 30.0918ZM188.244 26.3144C190.208 25.672 192.172 25.0249 194.136 24.3774L193.197 21.5283C191.233 22.1758 189.272 22.8218 187.311 23.463L188.244 26.3144ZM200.021 22.4396C201.002 22.1179 201.983 21.7971 202.964 21.4775L202.036 18.6249C201.051 18.9453 200.068 19.2669 199.086 19.589L200.021 22.4396ZM202.964 21.4775C204.036 21.1286 205.107 20.7854 206.179 20.4447L205.27 17.5857C204.195 17.9277 203.116 18.2732 202.036 18.6249L202.964 21.4775ZM212.638 18.3971C214.802 17.7046 216.96 16.9989 219.101 16.2571L218.12 13.4224C216.01 14.1532 213.877 14.8508 211.724 15.5398L212.638 18.3971ZM225.517 13.8809C227.641 13.0334 229.743 12.1234 231.816 11.1259L230.515 8.42261C228.514 9.38569 226.476 10.2684 224.405 11.0946L225.517 13.8809ZM237.903 7.86796C238.889 7.28055 239.865 6.66606 240.832 6.02151L239.168 3.52536C238.245 4.14077 237.311 4.72834 236.367 5.29087L237.903 7.86796Z" fill="white"/>
</svg>
