<svg width="328" height="144" viewBox="0 0 328 144" fill="none" xmlns="http://www.w3.org/2000/svg">
<path d="M7.50042 1.02295C6.71945 0.746573 5.86231 1.15563 5.58593 1.93659L1.08218 14.6632C0.805807 15.4442 1.21486 16.3013 1.99583 16.5777C2.7768 16.854 3.63394 16.445 3.91031 15.664L7.91365 4.35149L19.2262 8.35483C20.0071 8.6312 20.8643 8.22215 21.1407 7.44118C21.417 6.66022 21.008 5.80307 20.227 5.5267L7.50042 1.02295ZM24.7778 23.0854L24.7556 24.5852L24.7778 23.0854ZM37.6944 23.0216L37.5997 21.5246L37.6944 23.0216ZM67.7639 12.7612L67.5275 11.2799L67.7639 12.7612ZM93.6667 8.17267L93.6347 9.67232L93.6667 8.17267ZM109.778 23.9776L110.547 22.69L109.778 23.9776ZM122.625 38.5079L124.035 37.9958L122.625 38.5079ZM129.639 50.6165L128.207 51.0624L129.639 50.6165ZM143.806 64.3183L143.046 65.6118L143.806 64.3183ZM160.125 70.755L160.996 69.5341L160.125 70.755ZM124.5 54.3128L125.181 55.6492L124.5 54.3128ZM125.264 85.8589L126.694 85.4065L125.264 85.8589ZM131.444 101.027L131.825 99.5756L131.444 101.027ZM140.194 106.316L140.82 104.953L140.194 106.316ZM152.278 111.414L151.527 112.713L152.278 111.414ZM192.556 112.562L193.695 113.537L192.556 112.562ZM207.556 102.811L208.456 104.01L207.556 102.811ZM221.722 94.2075L222.505 95.487L221.722 94.2075ZM234.778 87.3247L234.829 88.8238L234.778 87.3247ZM267.694 88.5355L267.651 90.0349L267.694 88.5355ZM288.25 97.139L287.624 98.5023L288.25 97.139ZM295.75 105.679L297.216 105.359L295.75 105.679ZM299.5 117.405L298.227 118.198L299.5 117.405ZM311.5 135.504C311.5 139.922 315.082 143.504 319.5 143.504C323.918 143.504 327.5 139.922 327.5 135.504C327.5 131.086 323.918 127.504 319.5 127.504C315.082 127.504 311.5 131.086 311.5 135.504ZM7.07766 6.33824C7.39719 7.10256 8.27583 7.46314 9.04015 7.14361C9.80448 6.82408 10.1651 5.94545 9.84553 5.18112L7.07766 6.33824ZM12.7131 11.7566C12.3482 11.0129 11.4495 10.7058 10.7057 11.0707C9.962 11.4356 9.65491 12.3344 10.0198 13.0781L12.7131 11.7566ZM14.1289 19.517C14.6756 20.1394 15.6233 20.2008 16.2458 19.6541C16.8682 19.1074 16.9296 18.1596 16.3828 17.5372L14.1289 19.517ZM21.6386 21.1044C20.8469 20.8605 20.0074 21.3045 19.7635 22.0963C19.5196 22.888 19.9636 23.7275 20.7553 23.9714L21.6386 21.1044ZM27.9824 24.6399C28.8107 24.6538 29.4934 23.9935 29.5072 23.1652C29.5211 22.3369 28.8608 21.6542 28.0325 21.6403L27.9824 24.6399ZM34.4347 21.6548C33.6065 21.6728 32.9496 22.3588 32.9676 23.187C32.9856 24.0153 33.6716 24.6721 34.4999 24.6541L34.4347 21.6548ZM40.5936 24.1824C41.4096 24.0399 41.9556 23.2627 41.813 22.4467C41.6705 21.6306 40.8933 21.0846 40.0773 21.2272L40.5936 24.1824ZM44.9751 19.9148C44.1932 20.1884 43.7811 21.0441 44.0547 21.826C44.3283 22.608 45.1839 23.0201 45.9659 22.7465L44.9751 19.9148ZM51.014 20.7015C51.7701 20.363 52.1087 19.4757 51.7703 18.7195C51.4318 17.9634 50.5445 17.6248 49.7883 17.9632L51.014 20.7015ZM54.6027 15.7387C53.8508 16.0866 53.5233 16.9781 53.8712 17.73C54.2191 18.4818 55.1105 18.8093 55.8624 18.4615L54.6027 15.7387ZM60.663 16.368C61.4331 16.0628 61.81 15.191 61.5048 14.4208C61.1996 13.6507 60.3278 13.2738 59.5577 13.579L60.663 16.368ZM64.7894 11.8496C63.9866 12.054 63.5015 12.8705 63.7059 13.6733C63.9103 14.4761 64.7268 14.9612 65.5296 14.7568L64.7894 11.8496ZM71.3145 13.6253C72.1252 13.4547 72.6441 12.6592 72.4735 11.8486C72.3029 11.0379 71.5074 10.519 70.6967 10.6896L71.3145 13.6253ZM77.0501 9.16762C76.2471 9.37112 75.7611 10.1871 75.9646 10.9901C76.1681 11.7932 76.984 12.2792 77.7871 12.0757L77.0501 9.16762ZM84.1308 10.5911C84.9434 10.4301 85.4717 9.64076 85.3107 8.82813C85.1497 8.0155 84.3604 7.48726 83.5477 7.64826L84.1308 10.5911ZM90.2774 6.74331C89.4506 6.7944 88.8217 7.50611 88.8728 8.33296C88.9239 9.15981 89.6356 9.78869 90.4624 9.7376L90.2774 6.74331ZM95.9093 10.1594C96.6698 10.4879 97.5526 10.1378 97.8812 9.37733C98.2098 8.61684 97.8596 7.73399 97.0992 7.40542L95.9093 10.1594ZM102.078 11.6326C101.575 10.9743 100.634 10.8482 99.9755 11.351C99.3171 11.8538 99.191 12.7951 99.6938 13.4535L102.078 11.6326ZM102.82 18.2175C103.259 18.9199 104.185 19.1332 104.887 18.694C105.59 18.2548 105.803 17.3293 105.364 16.6269L102.82 18.2175ZM108.614 21.0994C108.043 20.4991 107.094 20.4751 106.493 21.046C105.893 21.6168 105.869 22.5663 106.44 23.1666L108.614 21.0994ZM110.997 26.5485C111.677 27.0214 112.612 26.8533 113.085 26.1731C113.558 25.4929 113.39 24.5582 112.71 24.0853L110.997 26.5485ZM116.722 27.3199C116.116 26.7542 115.167 26.7863 114.601 27.3915C114.036 27.9967 114.068 28.9459 114.673 29.5116L116.722 27.3199ZM117.836 32.9769C118.341 33.6334 119.283 33.7561 119.939 33.2509C120.596 32.7457 120.718 31.804 120.213 31.1474L117.836 32.9769ZM122.995 35.5717C122.626 34.8297 121.726 34.5267 120.984 34.895C120.242 35.2633 119.939 36.1635 120.307 36.9055L122.995 35.5717ZM122.929 42.4403C123.371 43.1415 124.297 43.3523 124.998 42.9111C125.699 42.47 125.91 41.5439 125.469 40.8427L122.929 42.4403ZM129.467 46.6616C129.043 45.9501 128.122 45.7172 127.411 46.1415C126.699 46.5658 126.466 47.4865 126.891 48.1981L129.467 46.6616ZM129.408 53.6601C129.837 54.3687 130.76 54.5953 131.468 54.1661C132.177 53.737 132.403 52.8147 131.974 52.106L129.408 53.6601ZM134.901 55.7143C134.317 55.127 133.367 55.1246 132.78 55.7089C132.192 56.2932 132.19 57.2429 132.774 57.8302L134.901 55.7143ZM136.673 61.2633C137.324 61.7749 138.267 61.6614 138.779 61.0098C139.29 60.3582 139.177 59.4153 138.525 58.9037L136.673 61.2633ZM142.496 61.7418C141.802 61.2896 140.873 61.4856 140.421 62.1796C139.968 62.8737 140.164 63.803 140.859 64.2553L142.496 61.7418ZM147.334 67.5274C148.117 67.7969 148.97 67.3804 149.24 66.597C149.51 65.8137 149.093 64.9602 148.31 64.6906L147.334 67.5274ZM156.773 67.3204C156.001 67.0215 155.132 67.4056 154.833 68.1783C154.534 68.9509 154.919 69.8195 155.691 70.1184L156.773 67.3204ZM162.252 73.7705C162.997 74.1334 163.895 73.8238 164.258 73.0791C164.621 72.3343 164.311 71.4365 163.566 71.0736L162.252 73.7705ZM169.191 72.5144C168.363 72.4894 167.672 73.1403 167.647 73.9684C167.621 74.7964 168.272 75.488 169.1 75.513L169.191 72.5144ZM176.058 74.1323C176.816 73.7992 177.161 72.9143 176.828 72.1558C176.495 71.3973 175.61 71.0524 174.851 71.3856L176.058 74.1323ZM179.715 68.0323C179.125 68.6139 179.118 69.5636 179.7 70.1536C180.281 70.7436 181.231 70.7504 181.821 70.1688L179.715 68.0323ZM185.936 64.6022C186.322 63.8692 186.04 62.9621 185.307 62.5761C184.574 62.19 183.667 62.4713 183.281 63.2043L185.936 64.6022ZM185.237 57.535C185.094 58.351 185.639 59.1286 186.455 59.2718C187.271 59.4151 188.048 58.8697 188.192 58.0538L185.237 57.535ZM188.085 51.2057C187.872 50.4053 187.05 49.9295 186.249 50.1431C185.449 50.3566 184.973 51.1786 185.186 51.979L188.085 51.2057ZM182.406 47.9893C183.08 48.4711 184.017 48.3155 184.498 47.6416C184.98 46.9677 184.825 46.0308 184.151 45.549L182.406 47.9893ZM178.084 43.0387C177.275 42.8608 176.475 43.3726 176.297 44.1817C176.119 44.9908 176.631 45.7909 177.44 45.9687L178.084 43.0387ZM171.74 45.293C172.568 45.3295 173.268 44.6882 173.305 43.8606C173.341 43.0329 172.7 42.3324 171.872 42.2959L171.74 45.293ZM165.895 42.2643C165.066 42.2821 164.409 42.9679 164.427 43.7961C164.445 44.6244 165.131 45.2814 165.959 45.2636L165.895 42.2643ZM160.285 45.523C161.112 45.4637 161.733 44.7458 161.674 43.9195C161.615 43.0932 160.897 42.4714 160.071 42.5307L160.285 45.523ZM154.258 43.1181C153.436 43.2265 152.858 43.9802 152.967 44.8015C153.075 45.6228 153.829 46.2007 154.65 46.0923L154.258 43.1181ZM149.074 47.0169C149.886 46.8537 150.412 46.0629 150.249 45.2507C150.086 44.4386 149.295 43.9125 148.483 44.0757L149.074 47.0169ZM142.783 45.4306C141.985 45.6505 141.515 46.4762 141.735 47.2749C141.955 48.0736 142.781 48.5429 143.579 48.3231L142.783 45.4306ZM138.186 50.0093C138.968 49.7357 139.38 48.88 139.106 48.0981C138.832 47.3161 137.977 46.9041 137.195 47.1777L138.186 50.0093ZM131.741 49.2802C130.977 49.6011 130.618 50.4804 130.939 51.2442C131.26 52.0079 132.139 52.3668 132.903 52.0459L131.741 49.2802ZM127.73 54.3841C128.476 54.0242 128.789 53.1275 128.429 52.3814C128.069 51.6352 127.173 51.3222 126.427 51.6821L127.73 54.3841ZM121.37 55.5345C120.989 56.2701 121.277 57.1753 122.012 57.5565C122.748 57.9377 123.653 57.6504 124.034 56.9148L121.37 55.5345ZM123.011 61.498C123.07 60.6717 122.448 59.9538 121.622 59.8945C120.796 59.8352 120.078 60.4569 120.018 61.2832L123.011 61.498ZM120.005 66.7936C120.044 67.6211 120.747 68.26 121.574 68.2206C122.402 68.1812 123.041 67.4785 123.001 66.651L120.005 66.7936ZM123.363 71.9345C123.303 71.1083 122.584 70.4876 121.758 70.5481C120.931 70.6086 120.311 71.3274 120.371 72.1536L123.363 71.9345ZM120.859 77.9287C121.038 78.7377 121.838 79.2489 122.647 79.0706C123.456 78.8922 123.967 78.0918 123.789 77.2828L120.859 77.9287ZM125.651 82.5555C125.343 81.7867 124.469 81.4136 123.7 81.7223C122.932 82.0309 122.559 82.9043 122.867 83.6731L125.651 82.5555ZM124.771 90.2912C124.964 91.097 125.772 91.5946 126.578 91.4026C127.384 91.2105 127.882 90.4016 127.69 89.5957L124.771 90.2912ZM130.126 97.2964C129.772 96.5477 128.877 96.2282 128.129 96.5828C127.38 96.9374 127.06 97.8318 127.415 98.5805L130.126 97.2964ZM132.958 103.393C133.66 103.833 134.586 103.62 135.025 102.917C135.464 102.215 135.251 101.289 134.549 100.85L132.958 103.393ZM138.797 103.792C138.105 103.336 137.175 103.526 136.718 104.217C136.262 104.909 136.452 105.839 137.143 106.296L138.797 103.792ZM142.686 108.976C143.459 109.273 144.327 108.887 144.625 108.114C144.922 107.34 144.536 106.473 143.763 106.175L142.686 108.976ZM149.944 108.575C149.184 108.243 148.3 108.59 147.968 109.349C147.637 110.108 147.983 110.992 148.742 111.324L149.944 108.575ZM154.696 114.174C155.474 114.457 156.335 114.056 156.619 113.278C156.902 112.5 156.501 111.639 155.723 111.355L154.696 114.174ZM161.7 112.771C160.88 112.654 160.12 113.225 160.003 114.045C159.887 114.865 160.457 115.625 161.277 115.741L161.7 112.771ZM167.873 116.292C168.701 116.323 169.397 115.677 169.428 114.849C169.459 114.021 168.813 113.325 167.985 113.294L167.873 116.292ZM174.387 113.369C173.559 113.372 172.89 114.047 172.894 114.875C172.897 115.704 173.572 116.372 174.4 116.369L174.387 113.369ZM181.445 116.507C182.272 116.547 182.975 115.908 183.015 115.081C183.054 114.253 182.416 113.55 181.588 113.511L181.445 116.507ZM188.844 113.089C188.048 113.318 187.589 114.149 187.818 114.945C188.047 115.741 188.879 116.201 189.675 115.971L188.844 113.089ZM196.8 110.906C197.488 110.444 197.672 109.512 197.21 108.824C196.748 108.136 195.816 107.953 195.128 108.415L196.8 110.906ZM203.031 103.911C202.309 104.318 202.054 105.233 202.461 105.954C202.868 106.676 203.783 106.931 204.505 106.524L203.031 103.911ZM211.778 101.744C212.479 101.303 212.69 100.377 212.249 99.6757C211.808 98.9745 210.881 98.7638 210.18 99.205L211.778 101.744ZM217.403 94.9978C216.683 95.4072 216.431 96.3229 216.84 97.0431C217.25 97.7634 218.165 98.0154 218.885 97.606L217.403 94.9978ZM225.673 93.3527C226.352 92.8789 226.519 91.944 226.045 91.2644C225.571 90.5848 224.636 90.418 223.957 90.8918L225.673 93.3527ZM230.586 86.8872C229.827 87.2204 229.483 88.1054 229.816 88.8638C230.149 89.6223 231.034 89.9671 231.792 89.6339L230.586 86.8872ZM237.539 88.7638C238.368 88.7548 239.032 88.076 239.023 87.2477C239.014 86.4193 238.335 85.755 237.507 85.764L237.539 88.7638ZM243.053 85.8127C242.225 85.791 241.536 86.4447 241.514 87.2728C241.493 88.101 242.146 88.7899 242.974 88.8117L243.053 85.8127ZM248.426 89.0261C249.253 89.0676 249.958 88.4305 249.999 87.6031C250.041 86.7757 249.404 86.0714 248.576 86.0299L248.426 89.0261ZM254.074 86.3397C253.247 86.2899 252.536 86.9198 252.487 87.7467C252.437 88.5736 253.067 89.2844 253.894 89.3343L254.074 86.3397ZM259.38 89.6622C260.207 89.7094 260.916 89.0771 260.963 88.2501C261.01 87.423 260.378 86.7143 259.551 86.6671L259.38 89.6622ZM265.012 86.9405C264.184 86.9065 263.485 87.5499 263.451 88.3777C263.417 89.2054 264.061 89.904 264.888 89.9379L265.012 86.9405ZM270.277 90.2681C271.096 90.3934 271.861 89.8311 271.986 89.0122C272.112 88.1933 271.549 87.4279 270.73 87.3026L270.277 90.2681ZM276.497 88.9853C275.737 88.6554 274.854 89.0041 274.524 89.764C274.194 90.524 274.543 91.4074 275.303 91.7372L276.497 88.9853ZM280.095 94.3036C280.805 94.7305 281.727 94.5011 282.154 93.7912C282.581 93.0812 282.351 92.1596 281.641 91.7327L280.095 94.3036ZM286.443 94.5558C285.715 94.1613 284.805 94.4319 284.41 95.1604C284.016 95.8888 284.286 96.7992 285.015 97.1937L286.443 94.5558ZM289.476 99.9859C290.075 100.557 291.025 100.534 291.596 99.9345C292.168 99.3347 292.145 98.3852 291.545 97.8138L289.476 99.9859ZM295.527 102.307C295.033 101.642 294.094 101.503 293.429 101.997C292.763 102.491 292.624 103.43 293.118 104.096L295.527 102.307ZM295.039 107.798C295.473 108.503 296.396 108.724 297.102 108.29C297.808 107.856 298.028 106.932 297.594 106.226L295.039 107.798ZM299.282 108.8C298.932 108.05 298.039 107.725 297.288 108.076C296.538 108.426 296.213 109.318 296.564 110.069L299.282 108.8ZM296.761 112.575C296.781 113.403 297.47 114.058 298.298 114.037C299.126 114.016 299.78 113.328 299.76 112.5L296.761 112.575ZM300.188 115.387C299.917 114.604 299.063 114.189 298.28 114.46C297.497 114.73 297.082 115.584 297.352 116.367L300.188 115.387ZM300.064 121.162C300.503 121.865 301.428 122.079 302.131 121.64C302.834 121.201 303.048 120.276 302.609 119.573L300.064 121.162ZM306.439 125.212C305.932 124.557 304.989 124.438 304.335 124.946C303.68 125.454 303.561 126.396 304.069 127.051L306.439 125.212ZM309.176 132.294C309.828 132.806 310.771 132.693 311.282 132.041C311.794 131.39 311.681 130.447 311.029 129.935L309.176 132.294ZM316.685 133.103C315.909 132.812 315.045 133.206 314.754 133.982C314.464 134.758 314.857 135.622 315.633 135.912L316.685 133.103ZM5.64626 3.08306C6.12238 4.08074 6.59084 5.17373 7.07766 6.33824L9.84553 5.18112C9.35543 4.00878 8.86341 2.85894 8.35374 1.79096L5.64626 3.08306ZM10.0198 13.0781C11.1402 15.3616 12.4605 17.6175 14.1289 19.517L16.3828 17.5372C14.9608 15.9182 13.7767 13.9244 12.7131 11.7566L10.0198 13.0781ZM20.7553 23.9714C21.9888 24.3514 23.3193 24.5639 24.7556 24.5852L24.8 21.5855C23.6358 21.5683 22.5885 21.397 21.6386 21.1044L20.7553 23.9714ZM24.7556 24.5852C25.8244 24.601 26.8947 24.6217 27.9824 24.6399L28.0325 21.6403C26.9568 21.6224 25.8712 21.6014 24.8 21.5855L24.7556 24.5852ZM34.4999 24.6541C35.5979 24.6302 36.6961 24.5878 37.7892 24.5186L37.5997 21.5246C36.5554 21.5907 35.4994 21.6317 34.4347 21.6548L34.4999 24.6541ZM37.7892 24.5186C38.7387 24.4585 39.673 24.3433 40.5936 24.1824L40.0773 21.2272C39.2565 21.3706 38.4314 21.472 37.5997 21.5246L37.7892 24.5186ZM45.9659 22.7465C47.6806 22.1465 49.3618 21.441 51.014 20.7015L49.7883 17.9632C48.1753 18.6852 46.579 19.3537 44.9751 19.9148L45.9659 22.7465ZM55.8624 18.4615C57.4686 17.7183 59.0597 17.0034 60.663 16.368L59.5577 13.579C57.8751 14.2459 56.2235 14.9889 54.6027 15.7387L55.8624 18.4615ZM65.5296 14.7568C66.3482 14.5484 67.171 14.3748 68.0003 14.2424L67.5275 11.2799C66.6 11.428 65.6878 11.6209 64.7894 11.8496L65.5296 14.7568ZM68.0003 14.2424C69.1324 14.0618 70.2351 13.8525 71.3145 13.6253L70.6967 10.6896C69.6567 10.9085 68.603 11.1083 67.5275 11.2799L68.0003 14.2424ZM77.7871 12.0757C79.9241 11.5341 82.0062 11.012 84.1308 10.5911L83.5477 7.64826C81.3354 8.08659 79.1815 8.6275 77.0501 9.16762L77.7871 12.0757ZM90.4624 9.7376C91.4954 9.67377 92.5506 9.64919 93.6347 9.67232L93.6987 6.67301C92.5273 6.64801 91.389 6.67463 90.2774 6.74331L90.4624 9.7376ZM93.6347 9.67232C94.4817 9.6904 95.2289 9.86538 95.9093 10.1594L97.0992 7.40542C96.0669 6.95944 94.9378 6.69945 93.6987 6.67301L93.6347 9.67232ZM99.6938 13.4535C100.778 14.873 101.747 16.5012 102.82 18.2175L105.364 16.6269C104.345 14.9975 103.272 13.1964 102.078 11.6326L99.6938 13.4535ZM106.44 23.1666C107.2 23.9656 108.046 24.6902 109.008 25.2652L110.547 22.69C109.872 22.2862 109.234 21.7512 108.614 21.0994L106.44 23.1666ZM109.008 25.2652C109.684 25.6688 110.348 26.0971 110.997 26.5485L112.71 24.0853C112.003 23.5942 111.281 23.1286 110.547 22.69L109.008 25.2652ZM114.673 29.5116C115.83 30.5928 116.893 31.7522 117.836 32.9769L120.213 31.1474C119.164 29.7842 117.989 28.5046 116.722 27.3199L114.673 29.5116ZM120.307 36.9055C120.651 37.5978 120.955 38.3032 121.215 39.02L124.035 37.9958C123.735 37.169 123.386 36.3604 122.995 35.5717L120.307 36.9055ZM121.215 39.02C121.672 40.2766 122.276 41.4019 122.929 42.4403L125.469 40.8427C124.89 39.9236 124.397 38.9936 124.035 37.9958L121.215 39.02ZM126.891 48.1981C127.439 49.1174 127.893 50.0535 128.207 51.0624L131.071 50.1706C130.669 48.8786 130.101 47.7243 129.467 46.6616L126.891 48.1981ZM128.207 51.0624C128.484 51.953 128.901 52.823 129.408 53.6601L131.974 52.106C131.563 51.4277 131.261 50.7801 131.071 50.1706L128.207 51.0624ZM132.774 57.8302C133.985 59.0473 135.325 60.2051 136.673 61.2633L138.525 58.9037C137.25 57.9023 136.006 56.8255 134.901 55.7143L132.774 57.8302ZM140.859 64.2553C141.633 64.7602 142.371 65.2155 143.046 65.6118L144.565 63.0249C143.932 62.6527 143.233 62.2219 142.496 61.7418L140.859 64.2553ZM143.046 65.6118C144.435 66.4275 145.888 67.0301 147.334 67.5274L148.31 64.6906C146.979 64.2328 145.725 63.7063 144.565 63.0249L143.046 65.6118ZM155.691 70.1184C156.986 70.6192 158.179 71.209 159.254 71.9759L160.996 69.5341C159.659 68.5798 158.225 67.8818 156.773 67.3204L155.691 70.1184ZM159.254 71.9759C160.246 72.6844 161.247 73.2808 162.252 73.7705L163.566 71.0736C162.719 70.6606 161.861 70.1509 160.996 69.5341L159.254 71.9759ZM169.1 75.513C171.556 75.5873 173.904 75.0779 176.058 74.1323L174.851 71.3856C173.073 72.1663 171.167 72.5742 169.191 72.5144L169.1 75.513ZM181.821 70.1688C183.458 68.5547 184.852 66.6597 185.936 64.6022L183.281 63.2043C182.336 64.9986 181.125 66.6423 179.715 68.0323L181.821 70.1688ZM188.192 58.0538C188.394 56.9035 188.5 55.7365 188.5 54.5677H185.5C185.5 55.5548 185.41 56.5482 185.237 57.535L188.192 58.0538ZM188.5 54.5677C188.5 53.354 188.36 52.2346 188.085 51.2057L185.186 51.979C185.387 52.7288 185.5 53.5858 185.5 54.5677H188.5ZM184.151 45.549C182.395 44.2938 180.278 43.5209 178.084 43.0387L177.44 45.9687C179.399 46.3993 181.093 47.0502 182.406 47.9893L184.151 45.549ZM171.872 42.2959C170.836 42.2502 169.807 42.2337 168.806 42.2337V45.2337C169.775 45.2337 170.759 45.2497 171.74 45.293L171.872 42.2959ZM168.806 42.2337C167.821 42.2337 166.851 42.2438 165.895 42.2643L165.959 45.2636C166.893 45.2436 167.842 45.2337 168.806 45.2337V42.2337ZM160.071 42.5307C158.087 42.673 156.154 42.8678 154.258 43.1181L154.65 46.0923C156.484 45.8502 158.358 45.6613 160.285 45.523L160.071 42.5307ZM148.483 44.0757C146.56 44.4621 144.665 44.9127 142.783 45.4306L143.579 48.3231C145.393 47.8238 147.22 47.3895 149.074 47.0169L148.483 44.0757ZM137.195 47.1777C135.382 47.8121 133.568 48.5121 131.741 49.2802L132.903 52.0459C134.677 51.3002 136.434 50.6225 138.186 50.0093L137.195 47.1777ZM126.427 51.6821C125.564 52.0985 124.695 52.5298 123.819 52.9765L125.181 55.6492C126.039 55.2121 126.888 54.7905 127.73 54.3841L126.427 51.6821ZM123.819 52.9765C122.7 53.5467 121.916 54.4817 121.37 55.5345L124.034 56.9148C124.378 56.2521 124.767 55.8605 125.181 55.6492L123.819 52.9765ZM120.018 61.2832C119.89 63.0775 119.919 64.9837 120.005 66.7936L123.001 66.651C122.918 64.8969 122.894 63.1236 123.011 61.498L120.018 61.2832ZM120.371 72.1536C120.448 73.2064 120.5 74.0671 120.5 74.7062H123.5C123.5 73.9435 123.44 72.981 123.363 71.9345L120.371 72.1536ZM120.5 74.7062C120.5 75.8535 120.637 76.9183 120.859 77.9287L123.789 77.2828C123.607 76.4576 123.5 75.6103 123.5 74.7062H120.5ZM122.867 83.6731C123.215 84.5399 123.547 85.404 123.834 86.3113L126.694 85.4065C126.373 84.3919 126.009 83.4462 125.651 82.5555L122.867 83.6731ZM123.834 86.3113C124.001 86.8404 124.288 88.2607 124.771 90.2912L127.69 89.5957C127.259 87.7896 126.903 86.0684 126.694 85.4065L123.834 86.3113ZM127.415 98.5805C127.828 99.4522 128.305 100.281 128.862 100.95C129.407 101.606 130.131 102.233 131.064 102.477L131.825 99.5756C131.743 99.554 131.514 99.4477 131.169 99.0322C130.834 98.6295 130.482 98.0469 130.126 97.2964L127.415 98.5805ZM131.064 102.477C131.57 102.61 132.192 102.915 132.958 103.393L134.549 100.85C133.697 100.317 132.77 99.8233 131.825 99.5756L131.064 102.477ZM137.143 106.296C137.914 106.804 138.73 107.294 139.569 107.679L140.82 104.953C140.176 104.657 139.503 104.259 138.797 103.792L137.143 106.296ZM139.569 107.679C140.604 108.154 141.651 108.578 142.686 108.976L143.763 106.175C142.757 105.789 141.775 105.391 140.82 104.953L139.569 107.679ZM148.742 111.324C149.71 111.747 150.641 112.201 151.527 112.713L153.028 110.116C152.021 109.533 150.985 109.03 149.944 108.575L148.742 111.324ZM151.527 112.713C152.523 113.288 153.587 113.77 154.696 114.174L155.723 111.355C154.752 111.002 153.851 110.591 153.028 110.116L151.527 112.713ZM161.277 115.741C163.448 116.05 165.682 116.21 167.873 116.292L167.985 113.294C165.86 113.215 163.736 113.061 161.7 112.771L161.277 115.741ZM174.4 116.369C175.527 116.364 176.601 116.356 177.625 116.356V113.356C176.592 113.356 175.501 113.364 174.387 113.369L174.4 116.369ZM177.625 116.356C178.727 116.356 180.001 116.438 181.445 116.507L181.588 113.511C180.223 113.445 178.823 113.356 177.625 113.356V116.356ZM189.675 115.971C191.177 115.539 192.614 114.8 193.695 113.537L191.416 111.586C190.829 112.272 189.975 112.763 188.844 113.089L189.675 115.971ZM193.695 113.537C194.484 112.615 195.54 111.752 196.8 110.906L195.128 108.415C193.746 109.342 192.449 110.38 191.416 111.586L193.695 113.537ZM204.505 106.524C205.884 105.746 207.245 104.92 208.456 104.01L206.655 101.611C205.597 102.406 204.366 103.157 203.031 103.911L204.505 106.524ZM208.456 104.01C209.5 103.227 210.615 102.476 211.778 101.744L210.18 99.205C208.968 99.9679 207.782 100.765 206.655 101.611L208.456 104.01ZM218.885 97.606C220.107 96.9115 221.326 96.2086 222.505 95.487L220.939 92.9279C219.802 93.6241 218.617 94.3082 217.403 94.9978L218.885 97.606ZM222.505 95.487C223.471 94.8958 224.565 94.1248 225.673 93.3527L223.957 90.8918C222.814 91.689 221.81 92.3954 220.939 92.9279L222.505 95.487ZM231.792 89.6339C232.929 89.1343 233.948 88.8538 234.829 88.8238L234.727 85.8255C233.323 85.8733 231.913 86.3043 230.586 86.8872L231.792 89.6339ZM234.829 88.8238C235.733 88.7931 236.637 88.7735 237.539 88.7638L237.507 85.764C236.583 85.7739 235.656 85.794 234.727 85.8255L234.829 88.8238ZM242.974 88.8117C244.789 88.8594 246.605 88.9349 248.426 89.0261L248.576 86.0299C246.738 85.9378 244.898 85.8612 243.053 85.8127L242.974 88.8117ZM253.894 89.3343C255.71 89.4438 257.541 89.5573 259.38 89.6622L259.551 86.6671C257.718 86.5625 255.897 86.4497 254.074 86.3397L253.894 89.3343ZM264.888 89.9379C265.805 89.9756 266.726 90.0084 267.651 90.0349L267.737 87.0362C266.826 87.01 265.917 86.9777 265.012 86.9405L264.888 89.9379ZM267.651 90.0349C268.583 90.0616 269.454 90.1423 270.277 90.2681L270.73 87.3026C269.784 87.1578 268.79 87.0663 267.737 87.0362L267.651 90.0349ZM275.303 91.7372C276.939 92.4473 278.473 93.3278 280.095 94.3036L281.641 91.7327C280 90.7455 278.325 89.7786 276.497 88.9853L275.303 91.7372ZM285.015 97.1937C285.841 97.6412 286.707 98.0812 287.624 98.5023L288.876 95.7757C288.028 95.3867 287.222 94.9774 286.443 94.5558L285.015 97.1937ZM287.624 98.5023C287.922 98.6388 288.577 99.1295 289.476 99.9859L291.545 97.8138C290.656 96.9668 289.679 96.1443 288.876 95.7757L287.624 98.5023ZM293.118 104.096C293.478 104.581 293.771 105.016 293.981 105.376C294.086 105.555 294.163 105.703 294.216 105.82C294.271 105.944 294.285 105.999 294.284 105.998L297.216 105.359C297.104 104.847 296.838 104.318 296.572 103.863C296.289 103.377 295.928 102.847 295.527 102.307L293.118 104.096ZM294.284 105.998C294.438 106.705 294.732 107.3 295.039 107.798L297.594 106.226C297.396 105.904 297.274 105.628 297.216 105.359L294.284 105.998ZM296.564 110.069C296.689 110.338 296.75 110.581 296.75 110.841H299.75C299.75 110.06 299.555 109.385 299.282 108.8L296.564 110.069ZM296.75 110.841C296.75 111.406 296.746 111.998 296.761 112.575L299.76 112.5C299.746 111.971 299.75 111.435 299.75 110.841H296.75ZM297.352 116.367C297.565 116.982 297.849 117.592 298.227 118.198L300.773 116.612C300.518 116.202 300.329 115.796 300.188 115.387L297.352 116.367ZM298.227 118.198C298.83 119.167 299.465 120.202 300.064 121.162L302.609 119.573C301.991 118.583 301.411 117.637 300.773 116.612L298.227 118.198ZM304.069 127.051C305.551 128.961 307.205 130.746 309.176 132.294L311.029 129.935C309.3 128.577 307.814 126.984 306.439 125.212L304.069 127.051ZM315.633 135.912C316.737 136.326 317.911 136.679 319.165 136.966L319.835 134.042C318.706 133.783 317.66 133.468 316.685 133.103L315.633 135.912Z" fill="white"/>
</svg>
